<svg width="48" height="43" viewBox="0 0 48 43" fill="none" xmlns="http://www.w3.org/2000/svg">
<mask id="mask0_2_164" style="mask-type:luminance" maskUnits="userSpaceOnUse" x="4" y="5" width="41" height="36">
<path fill-rule="evenodd" clip-rule="evenodd" d="M4.60126 5.37482H44.4449V40.3141H4.60126V5.37482Z" fill="white"/>
</mask>
<g mask="url(#mask0_2_164)">
<path fill-rule="evenodd" clip-rule="evenodd" d="M8.15056 21.7204C10.8791 29.5356 21.6591 35.8548 24.524 37.419C27.3985 35.8387 38.2564 29.4496 40.8974 21.7275C42.6314 16.736 41.0219 10.4132 34.6267 8.51579C31.5283 7.60025 27.9142 8.15746 25.4192 9.93479C24.8976 10.3039 24.1736 10.311 23.6482 9.94554C21.0052 8.11625 17.5527 7.58054 14.4057 8.51579C8.02016 10.4114 6.41649 16.7342 8.15056 21.7204ZM24.5259 40.3143C24.2846 40.3143 24.0452 40.2605 23.8272 40.1512C23.2181 39.8449 8.86871 32.5635 5.37138 22.541C5.36943 22.541 5.36943 22.5392 5.36943 22.5392C3.17412 16.2289 5.61855 8.299 13.5104 5.95729C17.216 4.85362 21.2543 5.33916 24.5201 7.23654C27.6846 5.39471 31.8884 4.88587 35.52 5.95729C43.4196 8.30258 45.8719 16.2307 43.6785 22.5392C40.294 32.4471 25.8396 39.8377 25.2265 40.1477C25.0086 40.2587 24.7672 40.3143 24.5259 40.3143Z" fill="white"/>
</g>
<path fill-rule="evenodd" clip-rule="evenodd" d="M36.0397 19.0363C35.2865 19.0363 34.6481 18.5042 34.5859 17.8018C34.4574 16.3291 33.387 15.0857 31.8631 14.6324C31.0944 14.403 30.674 13.6452 30.9212 12.941C31.1722 12.2351 31.9877 11.8517 32.7584 12.0739C35.411 12.864 37.2697 15.0265 37.4974 17.5832C37.5616 18.3232 36.9641 18.9718 36.1603 19.0309C36.1195 19.0345 36.0805 19.0363 36.0397 19.0363Z" fill="white"/>
</svg>
