<svg width="140" height="82" viewBox="0 0 140 82" fill="none" xmlns="http://www.w3.org/2000/svg">
<path d="M28.1537 17.5391C27.9382 16.6841 27.7001 15.8344 27.4396 14.9898C27.1988 14.2099 26.244 14.2992 26.1003 13.3253C26.0904 13.2579 26.0988 13.1928 26.1257 13.1293L26.3792 12.5298C26.3897 12.506 26.3946 12.4806 26.3935 12.4551C26.3925 12.4297 26.3853 12.4049 26.3728 12.3824C25.9953 11.7008 25.5933 11.0346 25.1666 10.3841C24.9581 10.0698 24.704 10.0064 24.404 10.194C24.3349 10.238 24.261 10.247 24.1822 10.2212C23.5258 10.0091 23.0794 9.60169 22.8428 8.99891C22.8202 8.94323 22.8181 8.88639 22.8365 8.82819C22.9859 8.35093 23.3112 8.01918 23.8125 7.83293C23.8266 7.8275 23.8393 7.81877 23.8488 7.80771C23.8585 7.79665 23.8649 7.78346 23.8674 7.76949C23.8699 7.75552 23.8685 7.74117 23.8634 7.72798C23.8581 7.71459 23.8495 7.70256 23.8378 7.69325L23.2506 7.21987C23.2246 7.19872 23.2075 7.16904 23.202 7.13645C22.9147 5.58828 25.3778 5.02954 25.5595 6.72128C25.565 6.77191 25.5549 6.82313 25.5299 6.86872C25.4186 7.07437 25.4364 7.2515 25.5828 7.4003C26.3671 8.20213 26.8686 8.75776 27.0869 9.06682C30.0317 13.2438 31.3203 18.8292 29.2648 23.5727C29.2199 23.6736 29.2275 23.8656 29.2881 24.1489C29.3008 24.2123 29.3324 24.2667 29.3831 24.3119C32.197 26.799 33.3906 29.4065 34.8102 32.658C34.8509 32.7512 34.8805 32.7479 34.8989 32.6483C35.4171 29.9736 35.9467 27.304 36.4875 24.6397C37.0896 21.6676 38.1838 18.9127 39.3478 16.1384C39.5295 15.7077 39.5907 15.1644 39.5316 14.5087C39.4492 13.5697 38.5514 12.9392 38.1796 12.0875C36.7832 8.88445 36.498 5.14594 37.5268 1.63442C37.5465 1.56982 37.5395 1.50773 37.5057 1.44817C37.3029 1.09256 37.3065 0.744507 37.5163 0.404413C38.1669 -0.643223 40.4653 0.553804 39.2844 1.62278C38.9775 1.90079 38.5852 2.01467 38.1078 1.96423C38.0374 1.95647 37.9895 1.98363 37.9641 2.04571C37.6711 2.76606 37.5199 3.27901 37.5099 3.58419C37.4254 6.53503 37.4339 9.56736 38.8429 12.2252C38.8951 12.3236 38.9232 12.3178 38.9274 12.2078C38.9422 11.9207 38.7669 11.5967 38.7162 11.391C38.507 10.5471 38.3 9.80986 38.2916 8.92131C38.2846 8.00172 38.2677 7.08271 38.2409 6.16447C38.2261 5.62125 38.5113 5.01207 38.2535 4.38155C37.3219 2.10391 40.3555 2.61997 39.9963 3.9043C39.7745 4.69196 38.8619 4.50572 38.7542 5.44083C38.5218 7.45326 38.6803 9.42961 39.2295 11.3697C39.2323 11.3778 39.2382 11.3846 39.2458 11.3893C39.2536 11.3939 39.2629 11.3959 39.272 11.3951C39.2813 11.3941 39.2897 11.3902 39.2963 11.3842C39.3028 11.3782 39.3068 11.3705 39.3077 11.3619C39.3584 9.93403 39.3647 8.40525 39.6731 7.08601C39.9224 6.01509 40.2885 4.97386 40.7716 3.9625C41.173 3.12245 39.9414 2.64714 41.1836 1.77411C41.9483 1.23477 42.7975 1.90603 43.1144 2.51521C43.1455 2.57593 43.1531 2.63879 43.1376 2.70339C42.901 3.68895 42.2229 3.74521 41.3315 4.00712C41.2708 4.02516 41.2286 4.06203 41.2047 4.1177C40.561 5.65812 40.1907 6.72515 40.0935 7.31882C39.8457 8.81267 39.726 10.3162 39.7344 11.8295C39.7371 12.0675 39.783 12.297 39.8717 12.5182C39.9154 12.6268 39.9456 12.6235 39.9625 12.5085C40.1484 11.2372 40.4267 9.98582 40.797 8.75446C40.9428 8.26751 40.9258 7.71847 40.7632 7.24703C40.5082 6.50845 40.7378 5.98735 41.4519 5.68334C42.4194 5.27011 42.8377 6.16836 43.1313 6.84156C43.1651 6.91664 43.1983 6.91664 43.2306 6.84156L43.8453 5.43889C43.8686 5.38593 43.873 5.32811 43.858 5.27398C43.6356 4.42676 43.8616 3.73803 44.5361 3.20781C44.7193 3.06425 44.92 3.06619 45.1382 3.21363C46.0656 3.83639 46.4416 4.33111 45.6938 5.2992C45.6741 5.32462 45.665 5.35566 45.6682 5.3869C45.6714 5.41813 45.6864 5.44762 45.7107 5.46993C46.2029 5.91809 46.9465 6.50593 46.2113 7.17331C45.2776 8.02306 44.6022 8.97757 44.1854 10.0369C43.9362 10.6654 43.5348 11.1504 43.22 11.7344C43.1932 11.7823 43.156 11.8204 43.1081 11.8489C43.0081 11.9096 42.9412 11.9899 42.9074 12.0894C42.9027 12.1036 42.9034 12.1189 42.9091 12.1327C42.9146 12.1467 42.9251 12.1583 42.9386 12.1663C42.9524 12.1742 42.9684 12.1779 42.9845 12.1765C43.0005 12.1754 43.0157 12.1692 43.0278 12.1593C44.2087 11.1776 47.8802 7.64862 47.3436 6.39534C47.3324 6.36876 47.328 6.34005 47.3305 6.31154C47.3331 6.28302 47.3426 6.25527 47.3584 6.23044C47.5464 5.94331 47.6394 5.58052 47.9415 5.40397C49.3336 4.5872 50.4511 6.94632 48.0746 7.11123C48.0397 7.11355 48.0061 7.12403 47.9767 7.14169C47.9476 7.15934 47.9237 7.1836 47.9077 7.21211C46.6091 9.50915 44.8494 11.4583 42.6285 13.0595C42.5679 13.1022 42.5694 13.1429 42.6328 13.1817C42.6862 13.2141 42.7369 13.2166 42.7849 13.1895C43.7298 12.6462 44.8629 11.9401 46.1839 11.0709C46.2458 11.0296 46.2741 10.9739 46.2684 10.9041L46.1775 9.89717C46.1763 9.87447 46.1822 9.85254 46.1944 9.83508C46.4579 9.45095 46.833 9.21038 47.3204 9.11338C47.3838 9.10038 47.4444 9.10755 47.5021 9.13472L48.0408 9.38499C48.0579 9.39275 48.0767 9.39701 48.0953 9.3974C48.1138 9.39779 48.1322 9.39411 48.1485 9.38693L49.4498 8.85147C49.4701 8.84313 49.492 8.83925 49.5142 8.84022C49.5362 8.84119 49.5575 8.8472 49.5765 8.85729L50.0244 9.09786C50.0538 9.11357 50.0869 9.12192 50.1209 9.12211C50.1549 9.12211 50.1881 9.11396 50.2177 9.09844C50.2471 9.08292 50.2713 9.06042 50.2882 9.03345C50.3051 9.00648 50.314 8.97583 50.3138 8.94459C50.3068 7.94488 50.7834 7.39448 51.744 7.29359C54.0255 7.05691 52.9946 9.83314 50.8081 9.45289C50.7722 9.44649 50.735 9.44823 50.7 9.45793C50.6649 9.46744 50.6328 9.48471 50.6064 9.50818C50.5802 9.53166 50.5603 9.56037 50.5487 9.59238C50.5371 9.6242 50.5341 9.65834 50.5398 9.69152C50.6174 10.1441 50.5139 10.5543 50.2293 10.9215C50.2059 10.9506 50.1949 10.9865 50.1982 11.0224C50.2018 11.0583 50.2194 11.0917 50.2479 11.1167C50.2764 11.1417 50.314 11.1567 50.3537 11.1586C50.3934 11.1605 50.4325 11.1493 50.4638 11.1272C50.6793 10.9758 50.8905 11.003 51.0975 11.2086C52.4157 12.5104 50.5082 13.5348 49.2069 13.2806C49.1234 13.2643 49.037 13.2746 48.9618 13.3097C47.7507 13.8749 46.4866 14.3102 45.1699 14.6154C45.1397 14.6228 45.1124 14.6383 45.0921 14.6602C45.0716 14.682 45.059 14.7091 45.0558 14.7376C45.0543 14.7557 45.0537 14.777 45.0537 14.8017C45.0537 14.8172 45.0575 14.8323 45.0647 14.8463C45.0716 14.8602 45.082 14.8727 45.0949 14.8828C45.1078 14.8926 45.1228 14.9 45.139 14.9041C45.1553 14.9082 45.1722 14.9089 45.1889 14.9064C46.5762 14.6994 47.9252 14.3748 49.2364 13.9325C50.054 13.657 54.974 11.7674 53.6516 10.4268C53.6051 10.3789 53.5846 10.3226 53.5903 10.258C53.8142 8.04634 56.8541 8.89609 55.7408 10.6092C55.4408 11.0728 54.8916 11.067 54.5451 11.3774C53.2593 12.5298 52.3503 13.2471 51.8179 13.529C49.7477 14.6251 47.4619 15.405 45.1297 15.4225C44.7522 15.425 44.3882 15.4568 44.0376 15.5175C42.9306 15.7096 41.9314 15.4652 40.8245 15.4108C40.7252 15.4058 40.6267 15.4314 40.5452 15.4834C40.4636 15.5354 40.4036 15.6111 40.3745 15.698C39.1704 19.3007 37.9557 22.915 37.1381 26.5953C36.3333 30.2232 35.5516 34.084 35.4608 37.45C35.389 40.071 35.1545 42.7891 35.3129 45.2937C35.4735 47.8817 35.7454 50.5338 36.1284 53.2499C36.3396 54.7515 36.6791 56.1858 37.1466 57.553C37.5374 58.6918 37.8247 60.0285 36.7494 60.9326C36.7127 60.9634 36.6677 60.9848 36.6191 60.9943C36.5705 61.004 36.52 61.0013 36.4727 60.9869C36.4256 60.9723 36.3833 60.9465 36.3506 60.9122C36.3181 60.8777 36.2959 60.836 36.2868 60.7909C35.5812 57.3357 34.8165 53.828 34.47 50.3456C34.3771 49.3989 34.1511 48.4172 34.0983 47.5325C33.9166 44.5448 33.9525 41.6056 34.2229 38.6218C34.3961 36.6914 34.3771 35.5002 33.9842 33.6669C33.6673 32.1885 32.9047 30.2155 32.3597 29.1582C31.4528 27.3952 30.1641 25.9138 28.4938 24.7135C28.4403 24.6747 28.3839 24.6714 28.3248 24.7038C26.5898 25.6427 24.7652 26.4104 22.8513 27.0066C19.0425 28.192 15.1238 26.8495 11.6022 25.9279C11.1354 25.8057 10.7847 25.5632 10.3601 25.3459C10.3288 25.33 10.2923 25.3254 10.2578 25.3329C10.2234 25.3405 10.1934 25.3597 10.1742 25.3867C8.96794 27.0105 6.91248 24.7445 8.70176 23.5572C9.74956 22.8626 10.7023 23.7027 10.5565 24.7426C10.5523 24.7759 10.5595 24.8095 10.5775 24.8388C10.5952 24.8681 10.6227 24.8914 10.6558 24.9055C14.114 26.314 17.9672 27.2161 21.7486 26.6516C22.5872 26.5255 23.4005 26.1142 24.2265 25.829C24.2358 25.8255 24.2432 25.8191 24.2477 25.8111C24.2519 25.803 24.2529 25.7937 24.2504 25.7846C24.2481 25.7756 24.2422 25.7677 24.2339 25.7619C24.2257 25.7562 24.2155 25.7531 24.2054 25.7533C21.8542 25.9726 19.7354 26.1413 17.5172 25.7592C16.3906 25.5651 15.2822 25.3013 14.1922 24.9676C13.3979 24.7251 12.7007 25.1073 12.0205 24.8163C10.6643 24.2343 11.4459 22.2011 12.724 22.4979C13.7844 22.7449 14.2224 23.3754 14.0379 24.3895C14.0253 24.4645 14.0576 24.5142 14.1351 24.5389C15.5864 25.0045 16.8243 25.3071 18.4404 25.3129C19.8826 25.3182 21.3233 25.3349 22.7626 25.3634C23.1893 25.3711 23.5928 25.2567 23.9244 25.0568C23.9369 25.0489 23.9462 25.0373 23.9509 25.0241C23.9555 25.0107 23.9555 24.9963 23.9504 24.9831C23.9454 24.9699 23.9356 24.9587 23.923 24.9509C23.9103 24.9432 23.8953 24.9395 23.8801 24.9404C20.8064 25.1888 17.1644 23.7783 14.359 22.5037C13.8168 22.2567 13.3767 22.0007 13.0387 21.7355C13.0159 21.7174 12.9878 21.7054 12.9576 21.7009C12.9274 21.6965 12.8963 21.6998 12.8676 21.7102L11.9191 22.0672C11.8473 22.0944 11.7769 22.0918 11.7079 22.0594C10.8037 21.6307 10.2925 20.9303 11.0466 20.1174C11.9973 19.0911 13.0345 20.1989 13.1106 21.1185C13.1131 21.148 13.1241 21.1763 13.1422 21.2004C13.1604 21.2246 13.1851 21.2438 13.2141 21.2563C13.5436 21.3973 14.0669 21.6656 14.7837 22.0614C17.0637 23.3172 19.6171 24.0694 22.4436 24.3177C22.6105 24.3332 22.8281 24.2517 23.0372 24.3584C23.2886 24.4865 23.5379 24.4806 23.7639 24.308C23.7658 24.3064 23.7673 24.3043 23.7681 24.3018C23.769 24.2994 23.769 24.2969 23.7683 24.2946C23.7677 24.2923 23.7664 24.2899 23.7645 24.2882C23.7626 24.2864 23.7601 24.2853 23.7576 24.2847C21.5606 23.7919 19.6354 23.1201 17.982 22.269C17.5278 22.0342 16.8095 21.4367 16.0744 21.2136C16.0419 21.2031 16.0072 21.1992 15.9726 21.2019C15.9381 21.2045 15.9043 21.2138 15.8737 21.2291C15.1485 21.5977 14.452 21.5531 13.7844 21.0952C13.7466 21.0692 13.7215 21.0302 13.7147 20.9866L13.5478 19.9467C13.5394 19.8976 13.5147 19.8561 13.4739 19.8225C12.386 18.9243 13.3514 18.1813 14.1964 17.6768C14.2555 17.6419 14.2957 17.5934 14.3168 17.5313C14.7477 16.2877 16.7588 15.8493 16.8159 17.5119C16.8286 17.8573 16.9532 18.0901 17.232 18.2705C17.9277 18.7231 18.7799 19.2489 19.7882 19.8478C21.55 20.8915 23.5083 21.7471 25.4053 22.6492C25.7659 22.8213 26.1115 23.014 26.4425 23.2274C26.5116 23.2714 26.5461 23.2551 26.5461 23.1789C26.5461 23.1492 26.5397 23.1181 26.527 23.0857C26.5171 23.0572 26.4968 23.0314 26.4658 23.0081C26.0137 22.657 25.5046 22.399 25.0905 22.0323C24.43 21.4489 23.7407 20.8954 23.0224 20.3716C20.1304 18.2647 18.1975 16.6137 16.2138 15.7348C16.1519 15.7077 16.0907 15.7083 16.03 15.7368C14.0422 16.6816 13.1824 14.0159 15.3076 13.4009C15.3325 13.3937 15.3591 13.3918 15.3851 13.3955C15.4111 13.3992 15.4358 13.4085 15.4575 13.4223L16.1779 13.8821C16.2371 13.9195 16.2702 13.9707 16.2772 14.0353C16.4673 15.6242 17.9186 16.0414 19.1502 16.9008C21.9921 18.8861 24.7631 20.9232 27.4629 23.012C27.4842 23.0291 27.5119 23.0384 27.5402 23.0378C27.5687 23.0372 27.5958 23.027 27.6165 23.0091C27.637 22.9911 27.6496 22.9668 27.6515 22.9408C27.6536 22.9148 27.6452 22.889 27.6277 22.8685C25.1814 19.8769 22.3675 17.0405 19.1755 14.7144C19.0976 14.6567 19 14.6267 18.8999 14.629C18.7995 14.6315 18.7034 14.6666 18.6284 14.7279C18.2708 15.0215 17.844 15.1115 17.3482 14.9976C17.2806 14.9834 17.2221 14.9536 17.1729 14.9084C17.0742 14.8191 16.9526 14.7576 16.8074 14.7241C16.7286 14.705 16.6549 14.6717 16.5903 14.6261C16.5258 14.5805 16.4718 14.5233 16.4316 14.4583C16.3915 14.3933 16.3659 14.3213 16.3564 14.247C16.3469 14.1727 16.3539 14.0974 16.3765 14.0256C16.6315 13.225 17.2103 12.7607 18.113 12.6327C18.2427 12.6144 18.3755 12.6377 18.489 12.6988C18.6024 12.7599 18.6897 12.855 18.7361 12.9683L19.2917 14.3244C19.3097 14.3661 19.3405 14.402 19.3805 14.4272C21.5268 15.6941 23.428 17.4246 25.1877 19.1125C26.1918 20.0734 27.0784 21.1185 27.8474 22.2476C27.8643 22.2734 27.8847 22.2878 27.9086 22.2903C27.9494 22.2942 27.9614 22.2787 27.9445 22.2437C27.4686 21.3255 26.9312 20.4408 26.3327 19.5897C25.2342 18.0202 23.6393 16.6544 22.3781 15.1043C21.9197 14.5397 21.4063 14.0897 20.6268 14.433C20.5704 14.4577 20.5128 14.4583 20.4536 14.435C18.2989 13.5561 20.2043 10.8071 21.6049 12.4406C21.9372 12.8286 22.0597 13.2903 21.9725 13.8258C21.9672 13.8578 21.9697 13.8908 21.9799 13.922C21.9902 13.9531 22.0078 13.982 22.0316 14.0062C22.8978 14.887 23.7449 15.696 24.554 16.668C25.1385 17.3717 25.7524 18.0526 26.3961 18.7109C26.5256 18.8442 26.5524 18.8287 26.4763 18.6643C26.3813 18.4529 26.1531 18.2802 26.0581 18.0784C25.5194 16.9512 24.8117 15.4749 23.5907 15.0325C22.2746 14.5553 21.9788 13.721 23.0921 12.7859C23.147 12.7394 23.2104 12.7258 23.2822 12.7452C24.0793 12.9561 24.5624 13.4228 24.7314 14.1459C24.8075 14.4757 24.5392 14.7939 24.8032 15.1024C26.5503 17.155 27.2495 19.0814 28.1051 21.3164C28.1102 21.3282 28.1197 21.3379 28.1319 21.3441C28.1442 21.3502 28.1583 21.3521 28.1718 21.3496C28.1854 21.3471 28.1976 21.3401 28.2063 21.3302C28.2149 21.3203 28.2194 21.3079 28.2192 21.2951C28.1178 20.0127 27.9255 18.7633 27.3868 17.5721C26.3067 15.1844 24.6702 13.1571 22.4774 11.49C22.4225 11.4473 22.3591 11.4292 22.2873 11.4356C21.1275 11.5385 20.3163 10.745 21.1528 9.80404C21.1978 9.7536 21.2549 9.72004 21.324 9.70316C21.9683 9.54795 22.621 9.34037 22.9083 10.1145C22.9183 10.1414 22.9221 10.1699 22.9195 10.1983C22.917 10.2268 22.9081 10.2543 22.8935 10.2794C22.6591 10.6829 22.7393 11.003 23.128 11.3057C25.3278 13.0154 26.9819 15.0998 28.0903 17.5585C28.0939 17.5651 28.1002 17.5703 28.1076 17.573C28.115 17.5758 28.1235 17.5761 28.1311 17.5738C28.1387 17.5713 28.1452 17.5666 28.1492 17.5602C28.1535 17.5538 28.1549 17.5465 28.1537 17.5391ZM39.1112 0.823469L38.7943 0.544098C38.7804 0.531682 38.7637 0.521987 38.7458 0.515585C38.7276 0.508988 38.7084 0.505884 38.6889 0.506272C38.6695 0.50666 38.6503 0.510538 38.6325 0.517716C38.6148 0.524894 38.5987 0.535178 38.5852 0.547982L38.5556 0.57514C38.4633 0.663219 38.3999 0.769927 38.3794 0.871781C38.3587 0.973634 38.3826 1.06229 38.4458 1.11836L38.4986 1.16492C38.5622 1.2206 38.6596 1.23903 38.7698 1.21614C38.8799 1.19325 38.9935 1.13097 39.0859 1.0427L39.1154 1.01554C39.129 1.00273 39.1395 0.987406 39.1465 0.970916C39.1537 0.954231 39.1571 0.936574 39.1566 0.918725C39.1562 0.900877 39.152 0.883222 39.1442 0.866926C39.1364 0.850629 39.1252 0.835885 39.1112 0.823469ZM44.9121 4.0789C45.1219 4.2083 45.2227 4.37709 45.2142 4.58526C45.2115 4.66151 45.2487 4.68615 45.3262 4.65899C45.6585 4.5387 45.7481 4.38213 45.5945 4.18949C45.3847 3.92816 45.1578 3.86356 44.9142 3.99548C44.865 4.02264 44.8642 4.05038 44.9121 4.0789ZM42.1321 6.20715C42.1152 6.19823 42.0958 6.19377 42.0763 6.19435C42.0567 6.19513 42.0379 6.20076 42.0216 6.21104C42.0056 6.22113 41.9929 6.23529 41.9851 6.25178C41.9772 6.26827 41.9749 6.2865 41.9779 6.30416C42.0624 6.75561 41.9595 7.15973 41.6695 7.5167C41.6517 7.53474 41.6426 7.55841 41.6441 7.58266C41.6454 7.60672 41.6572 7.62942 41.6768 7.64572C41.6965 7.66201 41.7223 7.67035 41.7487 7.669C41.7749 7.66783 41.7996 7.65697 41.8173 7.63893C42.2715 7.26449 43.0468 6.71739 42.1321 6.20715ZM45.6257 7.0507C45.6591 7.05904 45.6957 7.05613 45.7331 7.04216C45.7704 7.028 45.808 7.00317 45.8438 6.96883C45.8792 6.9343 45.9124 6.89122 45.9409 6.84175C45.9692 6.79228 45.9927 6.73757 46.0098 6.68053C46.044 6.56529 46.0501 6.44811 46.0265 6.3548C46.003 6.26129 45.9519 6.1994 45.8843 6.18232C45.8509 6.17398 45.8144 6.17689 45.777 6.19086C45.7396 6.20502 45.702 6.22986 45.6663 6.26419C45.6308 6.29873 45.5976 6.3418 45.5691 6.39127C45.5406 6.44074 45.5174 6.49545 45.5003 6.55249C45.466 6.66773 45.4599 6.78491 45.4836 6.87823C45.507 6.97174 45.5581 7.03363 45.6257 7.0507ZM44.4136 7.02004C44.3432 6.795 44.1975 6.63009 43.9763 6.52533C43.8975 6.48789 43.839 6.50593 43.801 6.57965C43.753 6.67413 43.7319 6.7756 43.7376 6.88424C43.7418 6.94768 43.7277 7.00782 43.6953 7.06467C42.8081 8.59984 42.0398 10.1843 41.3906 11.8178C41.2258 12.2272 41.0399 12.9586 40.7505 13.494C40.6548 13.67 40.7167 13.7307 40.9364 13.6764C40.9584 13.6714 40.9782 13.6605 40.9935 13.6454C42.7236 12.0041 43.6193 10.4811 44.7812 8.04634C44.9698 7.64921 44.8895 7.35704 44.5403 7.16943C44.477 7.13451 44.4347 7.08465 44.4136 7.02004ZM24.4927 7.89889L25.2004 8.34123C25.2344 8.36199 25.2621 8.39051 25.2807 8.42427C25.299 8.45783 25.3079 8.49547 25.306 8.5333C25.2919 8.79715 25.2955 9.05964 25.3166 9.32097C25.3842 10.1183 26.3707 11.393 26.8397 12.0933C26.8695 12.137 26.9166 12.1682 26.9707 12.1806L27.7058 12.3533C27.7707 12.3675 27.8248 12.3985 27.8685 12.4464C28.2122 12.8214 28.3592 13.256 28.31 13.7501C28.3043 13.8147 28.3136 13.8776 28.3375 13.9383C29.1951 16.1034 29.436 18.9049 29.3409 21.4056C29.3297 21.7031 29.4248 21.7349 29.6261 21.5007C29.6599 21.4605 29.6669 21.3688 29.6472 21.2252C29.5796 20.7771 29.6514 20.3095 29.5944 19.8478C29.5395 19.4157 29.5169 19.0498 29.5268 18.7497C29.6197 15.9508 29.0008 13.2898 27.6699 10.7663C27.3763 10.2095 25.399 7.08989 24.4864 7.73593C24.4729 7.74582 24.4619 7.75843 24.4545 7.77279C24.4473 7.78715 24.4437 7.80306 24.4443 7.81897C24.445 7.83487 24.4498 7.85039 24.4581 7.86417C24.4665 7.87814 24.4783 7.88997 24.4927 7.89889ZM51.97 7.70683L51.4947 8.79133C51.4905 8.80141 51.4909 8.81247 51.4955 8.82237C51.5004 8.83207 51.5091 8.83983 51.52 8.84371L51.5412 8.85147C51.6229 8.88193 51.7104 8.89725 51.7987 8.89687C51.8868 8.89648 51.9738 8.88018 52.0549 8.84895C52.1358 8.8179 52.2094 8.77231 52.2708 8.71528C52.3323 8.65804 52.3809 8.59034 52.4136 8.51584L52.4242 8.49062C52.4901 8.34026 52.4878 8.17187 52.4176 8.02248C52.3475 7.8729 52.2155 7.75455 52.0503 7.69325L52.0292 7.68549C52.0237 7.68316 52.018 7.682 52.012 7.6818C52.0061 7.6818 52.0002 7.68277 51.9947 7.68471C51.9892 7.68665 51.9842 7.68976 51.9799 7.69344C51.9757 7.69732 51.9723 7.70178 51.97 7.70683ZM41.2047 8.49837L40.4315 12.5997C40.4288 12.6191 40.4364 12.6313 40.4548 12.6365C40.4744 12.6429 40.4943 12.6488 40.5139 12.654C40.5361 12.6602 40.56 12.6581 40.5805 12.6484C40.6009 12.6385 40.6166 12.6218 40.6238 12.6016C40.835 12.0182 41.0562 11.4376 41.2871 10.8594C41.6251 10.0174 42.2377 9.01831 42.6032 8.03276C42.6342 7.94875 42.6047 7.9216 42.5145 7.95128L41.3505 8.33735C41.3126 8.34977 41.2793 8.3713 41.2535 8.39963C41.2279 8.42795 41.211 8.46209 41.2047 8.49837ZM24.3786 8.48868C24.366 8.48247 24.3518 8.47936 24.3374 8.47956C24.3231 8.47956 24.3091 8.48305 24.2965 8.48926C24.284 8.49566 24.2732 8.50478 24.2654 8.51584C24.2576 8.5269 24.2529 8.5395 24.2519 8.5527L24.1674 9.70898C24.1655 9.73032 24.1714 9.75166 24.1845 9.76932C24.1976 9.78697 24.217 9.79997 24.2392 9.80618C24.2616 9.81219 24.2855 9.81122 24.307 9.80307C24.3286 9.79492 24.3463 9.78018 24.3575 9.76136C24.6279 9.33454 25.1096 8.85341 24.3786 8.48868ZM49.6315 9.35783L49.0231 9.95731C49.0184 9.96216 49.0161 9.96856 49.0165 9.97515C49.0169 9.98175 49.0199 9.98777 49.0252 9.99223C49.1059 10.0613 49.2157 10.0958 49.3306 10.0877C49.4456 10.0797 49.5561 10.0301 49.6378 9.94955L49.6674 9.92045C49.7077 9.88048 49.7398 9.83411 49.762 9.78406C49.784 9.734 49.7954 9.68124 49.7956 9.62886C49.7958 9.57647 49.7846 9.52545 49.7631 9.4785C49.7415 9.43174 49.7096 9.39003 49.6695 9.35589C49.6642 9.35162 49.6572 9.34948 49.6501 9.34987C49.6429 9.35026 49.6363 9.35298 49.6315 9.35783ZM54.4712 10.6208C55.1852 10.6421 55.8718 9.95343 55.1768 9.36947C55.15 9.34774 55.1153 9.3359 55.0796 9.33629C55.0441 9.33648 55.0101 9.34909 54.9845 9.3714C54.8282 9.50973 54.7585 9.68124 54.7754 9.88553C54.7777 9.91075 54.7743 9.93597 54.7655 9.95983C54.7566 9.98389 54.7424 10.0058 54.7236 10.0246C54.7051 10.0433 54.6825 10.0584 54.6573 10.0689C54.632 10.0793 54.6045 10.085 54.5768 10.0854C54.4135 10.0879 54.3022 10.1643 54.2431 10.3143C54.2297 10.3484 54.2253 10.3849 54.2302 10.421C54.2352 10.4569 54.2494 10.4912 54.2718 10.5211C54.294 10.5512 54.3237 10.5758 54.3584 10.5931C54.393 10.6103 54.4317 10.6198 54.4712 10.6208ZM47.6901 10.4928L48.0492 10.3259C48.0631 10.3193 48.0739 10.3079 48.079 10.2941C48.0843 10.2803 48.0834 10.2654 48.0767 10.2522L47.9985 10.1086C47.9125 9.95091 47.8067 9.81044 47.704 9.7181C47.6013 9.62556 47.5105 9.58889 47.4514 9.61585L47.4281 9.62749C47.3692 9.65485 47.3468 9.74351 47.3658 9.87408C47.3848 10.0046 47.4438 10.1664 47.5295 10.324L47.6077 10.4675C47.6113 10.4741 47.6163 10.4802 47.6223 10.485C47.6284 10.4899 47.6356 10.4935 47.6432 10.4959C47.6508 10.4982 47.6588 10.4992 47.667 10.4986C47.6751 10.498 47.6829 10.4961 47.6901 10.4928ZM43.2433 14.3419C45.1804 14.3845 47.1451 13.6105 48.9132 12.9256C48.9825 12.899 49.0406 12.853 49.0793 12.7941C49.1181 12.7351 49.1355 12.6664 49.1287 12.5977C49.0864 12.1723 49.1914 11.792 49.4435 11.457C49.4899 11.3949 49.4751 11.3503 49.3991 11.3231C48.9907 11.177 48.6527 11.2003 48.3851 11.393C46.7585 12.5609 45.0353 13.4999 43.2158 14.2099C43.0003 14.2928 43.0094 14.3366 43.2433 14.3419ZM50.896 12.4635C50.9469 12.4458 50.9748 12.3775 50.9731 12.2736C50.9716 12.1696 50.941 12.0384 50.888 11.9088C50.8618 11.8446 50.8307 11.7827 50.7969 11.7268C50.7629 11.671 50.7268 11.6219 50.6905 11.5827C50.6541 11.5435 50.6182 11.5148 50.5848 11.4983C50.5515 11.4818 50.5215 11.4777 50.4961 11.4865C50.4454 11.5041 50.4175 11.5724 50.4192 11.6764C50.4207 11.7804 50.4513 11.9115 50.5044 12.0411C50.5305 12.1053 50.5616 12.1672 50.5954 12.2231C50.6294 12.279 50.6655 12.3281 50.7019 12.3673C50.7382 12.4064 50.7741 12.4352 50.8075 12.4517C50.8409 12.4681 50.8709 12.4722 50.896 12.4635ZM20.9479 13.69C20.9141 13.7146 20.8903 13.7515 20.8761 13.8006C20.871 13.8173 20.8723 13.8351 20.8795 13.851C20.8867 13.8669 20.8993 13.8803 20.9158 13.889C20.9323 13.8978 20.9515 13.9015 20.9707 13.8995C20.9898 13.8976 21.0077 13.89 21.0219 13.8782C21.4423 13.5115 21.6789 12.6327 20.8677 12.5182C20.8431 12.5151 20.818 12.519 20.796 12.5293C20.7739 12.5395 20.7557 12.5556 20.7437 12.5756C20.7318 12.5956 20.7268 12.6185 20.7293 12.641C20.7318 12.6637 20.7418 12.6852 20.7578 12.7025C20.9972 12.9561 21.0901 13.238 21.0367 13.5484C21.0267 13.6066 20.9972 13.6537 20.9479 13.69ZM27.6228 13.6103C27.6553 13.5978 27.6824 13.574 27.7022 13.54C27.7221 13.5061 27.7346 13.4628 27.7388 13.4126C27.743 13.3625 27.739 13.3062 27.7267 13.2475C27.7147 13.1885 27.6948 13.1282 27.6682 13.0696C27.6418 13.011 27.6091 12.9555 27.5721 12.906C27.5351 12.8567 27.4946 12.8146 27.4527 12.7818C27.4111 12.7493 27.3689 12.7269 27.3287 12.7159C27.2884 12.705 27.251 12.7058 27.2185 12.7182C27.1859 12.7306 27.1589 12.7545 27.139 12.7884C27.1192 12.8224 27.1067 12.8657 27.1025 12.9159C27.0983 12.966 27.1023 13.0222 27.1145 13.081C27.1266 13.14 27.1464 13.2003 27.1728 13.2589C27.1995 13.3175 27.2322 13.373 27.2692 13.4225C27.3061 13.4717 27.3467 13.514 27.3885 13.5466C27.4301 13.5792 27.4724 13.6015 27.5125 13.6126C27.5529 13.6235 27.5903 13.6227 27.6228 13.6103ZM17.7412 13.106L17.4412 14.1168C17.4384 14.1269 17.4401 14.1374 17.4456 14.1465C17.4511 14.1554 17.46 14.1622 17.4708 14.1653L17.513 14.177C17.7319 14.2317 17.9585 14.227 18.1436 14.1636C18.3286 14.1003 18.4567 13.9837 18.4995 13.8394C18.5211 13.7678 18.5209 13.6915 18.4991 13.6149C18.4774 13.5385 18.4345 13.463 18.373 13.393C18.3113 13.3231 18.2321 13.2601 18.14 13.2075C18.0481 13.1549 17.9448 13.1138 17.8362 13.0866L17.7961 13.0769C17.7904 13.0754 17.7845 13.075 17.7785 13.0758C17.7726 13.0764 17.7671 13.0781 17.7619 13.0808C17.7568 13.0835 17.7524 13.0872 17.7488 13.0915C17.7452 13.0959 17.7426 13.1008 17.7412 13.106ZM24.1129 14.4185C24.1851 14.3857 24.2208 14.2918 24.212 14.1577C24.2031 14.0235 24.1507 13.8601 24.066 13.7036C24.0239 13.626 23.9754 13.5523 23.923 13.4869C23.8706 13.4215 23.8152 13.3654 23.7603 13.3222C23.7054 13.2787 23.6517 13.249 23.6027 13.2343C23.5535 13.2197 23.51 13.2207 23.4741 13.237C23.4018 13.2698 23.3661 13.3637 23.375 13.4977C23.3839 13.632 23.4362 13.7953 23.521 13.9519C23.563 14.0295 23.6116 14.1032 23.664 14.1686C23.7164 14.234 23.7717 14.2901 23.8266 14.3333C23.8816 14.3768 23.9352 14.4065 23.9842 14.4212C24.0334 14.4358 24.077 14.4348 24.1129 14.4185ZM15.2653 13.9267L15.035 14.1498C15.0266 14.1581 15.0222 14.169 15.0226 14.1803C15.023 14.1915 15.0283 14.2022 15.0372 14.2099L15.8103 14.8851C15.8196 14.8932 15.835 14.8946 15.8532 14.8892C15.8714 14.8837 15.8908 14.8719 15.9075 14.856L16.0765 14.693C16.0932 14.6769 16.1054 14.6585 16.1105 14.6412C16.1156 14.6241 16.1133 14.61 16.104 14.6018L15.3308 13.9247C15.3217 13.917 15.3099 13.9129 15.2976 13.9133C15.2854 13.9137 15.2738 13.9185 15.2653 13.9267ZM14.3928 18.6721C14.4009 18.6678 14.4097 18.6655 14.419 18.6651C14.4281 18.6649 14.4374 18.6665 14.4457 18.6702L15.3604 19.0601C15.368 19.0634 15.3762 19.0651 15.3847 19.0651C15.3931 19.0651 15.4013 19.0634 15.409 19.0601L15.6941 18.934C15.7036 18.9297 15.7115 18.9233 15.7172 18.9152C15.7229 18.907 15.7258 18.8977 15.726 18.888C15.7263 18.8783 15.7237 18.869 15.7184 18.8607C15.7132 18.8523 15.7055 18.8455 15.6963 18.8409L14.3781 18.2123C14.3707 18.2084 14.3622 18.2063 14.3538 18.2059C14.3451 18.2053 14.3366 18.2067 14.3288 18.2096C14.3208 18.2127 14.3138 18.2171 14.3079 18.223C14.3022 18.2288 14.298 18.2358 14.2957 18.2433L14.1436 18.7012C14.14 18.7113 14.1396 18.7221 14.1429 18.7322C14.1461 18.7425 14.1526 18.7516 14.1615 18.7582C14.1704 18.765 14.1814 18.7691 14.1928 18.7701C14.2044 18.7708 14.216 18.7685 14.226 18.7633L14.3928 18.6721ZM22.9654 22.1933C20.7952 21.0526 18.6848 19.8297 16.6342 18.5246C16.4525 18.4096 16.3237 18.4465 16.2476 18.6352C16.1646 18.8384 16.2597 19.0277 16.5328 19.2037C18.5171 20.4866 20.6522 21.5007 22.9379 22.2457C23.1618 22.3181 23.1709 22.3006 22.9654 22.1933ZM15.0414 19.5432L15.2062 20.7906C15.2066 20.7949 15.2081 20.7992 15.2104 20.8031C15.2127 20.8067 15.2159 20.8102 15.2197 20.813C15.2233 20.8157 15.2277 20.8176 15.2321 20.8188C15.2368 20.8199 15.2416 20.8203 15.2463 20.8197H15.2526C15.3418 20.8097 15.428 20.7831 15.5061 20.7414C15.5843 20.6997 15.6529 20.6438 15.7081 20.5768C15.7632 20.5097 15.8038 20.4329 15.8274 20.3508C15.8511 20.2688 15.8576 20.1828 15.8462 20.098L15.8441 20.0748C15.8213 19.9038 15.7279 19.7479 15.5845 19.6413C15.4411 19.5348 15.2594 19.4861 15.0794 19.5063H15.0731C15.0684 19.5067 15.0638 19.5081 15.0595 19.5102C15.0555 19.5123 15.0517 19.5152 15.0488 19.5187C15.0458 19.522 15.0437 19.5261 15.0424 19.5302C15.0412 19.5344 15.0407 19.5389 15.0414 19.5432ZM22.8745 23.2429C23.1956 23.3011 23.5041 23.4447 23.8378 23.5184C23.8659 23.5236 23.89 23.5217 23.9097 23.5126C23.9323 23.5023 23.9492 23.4879 23.9604 23.4699C23.9969 23.4092 23.9794 23.369 23.9075 23.3496C23.0794 23.1284 22.3549 22.9267 21.5817 22.5212C19.972 21.6753 18.2932 20.83 16.5455 19.9855C16.5218 19.9743 16.4952 19.969 16.4688 19.9704C16.4422 19.9717 16.4164 19.9797 16.3942 19.9935C16.3723 20.0072 16.3545 20.0261 16.3433 20.0484C16.3319 20.0705 16.3275 20.0949 16.33 20.1194C16.3659 20.422 16.4906 20.6975 16.7884 20.8876C18.9284 22.2496 20.2825 22.7734 22.8745 23.2429ZM12.5698 23.4796C12.8543 23.5054 13.0472 23.6425 13.1486 23.8909C13.1621 23.9289 13.1906 23.9609 13.2286 23.9805C13.2667 24.0001 13.3112 24.0057 13.3535 23.9964C13.396 23.9871 13.4329 23.9634 13.4572 23.9303C13.4815 23.8971 13.4912 23.8567 13.4845 23.8171C13.4365 23.4511 13.2557 23.1531 12.9416 22.9228C12.8797 22.8762 12.8148 22.8723 12.7472 22.9111C12.5641 23.0134 12.469 23.1653 12.462 23.3671C12.4605 23.4355 12.4964 23.4732 12.5698 23.4796ZM9.232 24.0519L9.53198 24.9016C9.53557 24.9115 9.54127 24.9208 9.54867 24.9288C9.55627 24.9366 9.56535 24.9432 9.57549 24.9478C9.58563 24.9525 9.59683 24.9554 9.60824 24.956C9.61965 24.9567 9.63105 24.9554 9.64183 24.9521L9.64816 24.9501C9.71154 24.9313 9.77006 24.9005 9.82033 24.8595C9.8704 24.8186 9.91138 24.7682 9.94096 24.7115C9.97032 24.6547 9.98764 24.5926 9.99166 24.5288C9.99588 24.4647 9.9868 24.4003 9.96504 24.339L9.93969 24.2731C9.89575 24.1497 9.80301 24.0465 9.68175 23.9861C9.56071 23.9258 9.42086 23.9132 9.29326 23.951L9.28693 23.9529C9.26559 23.9595 9.24784 23.9737 9.23749 23.9921C9.22735 24.0106 9.22524 24.0321 9.232 24.0519ZM36.7178 59.72L36.9839 59.6793C36.9998 59.677 37.0141 59.6688 37.0236 59.6568C37.0331 59.6449 37.0372 59.63 37.0346 59.6153L37.0283 59.5784C36.865 58.6625 36.6935 57.7864 36.5513 57.1417C36.4091 56.497 36.3079 56.1363 36.2699 56.1387L36.1643 56.1542C36.1457 56.1567 36.1432 56.2489 36.1569 56.4252C36.1706 56.6018 36.2004 56.859 36.2445 57.1822C36.2887 57.5056 36.3464 57.889 36.4142 58.31C36.482 58.7312 36.5585 59.1819 36.6396 59.6366L36.648 59.6735C36.6506 59.688 36.6594 59.7012 36.6725 59.7099C36.6854 59.7187 36.7017 59.7224 36.7178 59.72Z" fill="#E0E4DF"/>
<path d="M67.465 2.03333H65.6064C65.5675 2.03333 65.536 2.06842 65.536 2.11172V54.8216C65.536 54.8649 65.5675 54.9 65.6064 54.9H67.465C67.5039 54.9 67.5354 54.8649 67.5354 54.8216V2.11172C67.5354 2.06842 67.5039 2.03333 67.465 2.03333Z" fill="white"/>
<path d="M120.95 16.5343C135.962 19.4818 135.355 42.0649 121.093 45.3944C120.129 45.6185 118.653 45.7343 116.664 45.742C113.498 45.7535 110.332 45.7527 107.166 45.7392C107.061 45.7371 107.008 45.6883 107.008 45.5926L107.011 5.24422C107.011 5.13706 107.069 5.08334 107.185 5.08334C110.714 5.11408 114.238 5.14454 117.759 5.17528C121.578 5.20975 123.982 7.63726 124.019 11.1277C124.044 13.4604 123.014 15.2214 120.928 16.4108C120.825 16.4682 120.832 16.5093 120.95 16.5343ZM109.573 7.64301L109.561 15.6868C109.561 15.7397 109.583 15.7903 109.624 15.8279C109.664 15.8655 109.718 15.8871 109.776 15.8879L117.871 15.8994C118.395 15.9006 118.914 15.7974 119.399 15.5963C119.884 15.3952 120.324 15.0999 120.696 14.7273C121.067 14.3544 121.362 13.9117 121.564 13.4242C121.765 12.9367 121.87 12.4142 121.87 11.8861V11.4782C121.872 10.4127 121.454 9.39025 120.708 8.63556C119.961 7.88088 118.947 7.4557 117.89 7.4534L109.794 7.44192C109.765 7.44163 109.737 7.44651 109.71 7.45628C109.683 7.46633 109.659 7.48098 109.639 7.49966C109.618 7.51862 109.601 7.54074 109.59 7.56544C109.579 7.58986 109.573 7.61629 109.573 7.64301ZM109.539 18.3384V42.694C109.539 42.7354 109.548 42.7767 109.565 42.8149C109.583 42.8532 109.608 42.8882 109.639 42.9175C109.671 42.9468 109.709 42.9701 109.75 42.9859C109.792 43.002 109.837 43.01 109.881 43.01H117.395C118.973 43.01 120.536 42.6994 121.994 42.0959C123.452 41.4926 124.777 40.6081 125.893 39.4928C127.008 38.3779 127.894 37.0541 128.498 35.597C129.101 34.1402 129.412 32.5786 129.412 31.0017V30.0307C129.412 26.8459 128.146 23.7916 125.893 21.5396C123.639 19.2876 120.582 18.0224 117.395 18.0224H109.881C109.837 18.0224 109.792 18.0305 109.75 18.0466C109.709 18.0624 109.671 18.0856 109.639 18.1149C109.608 18.1442 109.583 18.1793 109.565 18.2175C109.548 18.256 109.539 18.2971 109.539 18.3384Z" fill="white"/>
<path d="M90.9592 16.5343C105.971 19.4818 105.365 42.0649 91.1022 45.3944C90.1382 45.6185 88.6618 45.7343 86.6736 45.742C83.5076 45.7535 80.3416 45.7527 77.1757 45.7392C77.0699 45.7371 77.0171 45.6883 77.0171 45.5926L77.0202 5.24422C77.0202 5.13706 77.0783 5.08334 77.1943 5.08334C80.7232 5.11408 84.2478 5.14454 87.7683 5.17528C91.5874 5.20975 93.9914 7.63726 94.0287 11.1277C94.0536 13.4604 93.0233 15.2214 90.9374 16.4108C90.8338 16.4682 90.841 16.5093 90.9592 16.5343ZM79.5828 7.64301L79.5704 15.6868C79.5704 15.7397 79.5928 15.7903 79.6329 15.8279C79.6733 15.8655 79.7277 15.8871 79.785 15.8879L87.8803 15.8994C88.4046 15.9006 88.9237 15.7974 89.4085 15.5963C89.8934 15.3952 90.3338 15.0999 90.7054 14.7273C91.0767 14.3544 91.3716 13.9117 91.5731 13.4242C91.7746 12.9367 91.8788 12.4142 91.8797 11.8861V11.4782C91.8816 10.4127 91.4633 9.39025 90.7169 8.63556C89.9702 7.88088 88.9567 7.4557 87.899 7.4534L79.8036 7.44192C79.7747 7.44163 79.7461 7.44651 79.7193 7.45628C79.6926 7.46633 79.6683 7.48098 79.6478 7.49966C79.627 7.51862 79.6108 7.54074 79.5996 7.56544C79.5884 7.58986 79.5828 7.61629 79.5828 7.64301ZM79.5486 18.3384V42.694C79.5486 42.7354 79.5573 42.7767 79.5747 42.8149C79.5918 42.8532 79.617 42.8882 79.6488 42.9175C79.6805 42.9468 79.7184 42.9701 79.7598 42.9859C79.8014 43.002 79.8459 43.01 79.8907 43.01H87.4045C88.9825 43.01 90.5452 42.6994 92.0032 42.0959C93.4612 41.4926 94.786 40.6081 95.9019 39.4928C97.0178 38.3779 97.9029 37.0541 98.5068 35.597C99.1108 34.1402 99.4215 32.5786 99.4215 31.0017V30.0307C99.4215 26.8459 98.1554 23.7916 95.9019 21.5396C93.6481 19.2876 90.5916 18.0224 87.4045 18.0224H79.8907C79.8459 18.0224 79.8014 18.0305 79.7598 18.0466C79.7184 18.0624 79.6805 18.0856 79.6488 18.1149C79.617 18.1442 79.5918 18.1793 79.5747 18.2175C79.5573 18.256 79.5486 18.2971 79.5486 18.3384Z" fill="white"/>
<path d="M106.132 65.3393C106.494 65.3393 106.787 65.0394 106.787 64.6696C106.787 64.2999 106.494 64 106.132 64C105.77 64 105.477 64.2999 105.477 64.6696C105.477 65.0394 105.77 65.3393 106.132 65.3393Z" fill="white"/>
<path d="M5.13043 68.2593C5.12309 68.2635 5.11701 68.2699 5.11307 68.2776C5.10931 68.2853 5.1077 68.294 5.10878 68.3026C5.10967 68.3112 5.11307 68.3193 5.11862 68.3259C5.12399 68.3325 5.13132 68.3374 5.13938 68.3398C10.2448 69.6114 10.4828 76.7267 5.60285 78.3093C4.11222 78.7941 1.71074 78.538 0.087684 78.5307C0.0292218 78.5294 0 78.499 0 78.4392V64.4592C0 64.4067 0.0250523 64.38 0.0751577 64.3787C2.30252 64.3189 3.70475 64.3147 4.28222 64.3659C6.22738 64.5361 6.99149 67.2658 5.13043 68.2593ZM0.937685 65.2478L0.926949 68.0178C0.926949 68.0421 0.93638 68.0653 0.953147 68.0825C0.969932 68.0996 0.992694 68.1093 1.01642 68.1093L3.93864 68.1202C4.12653 68.121 4.31282 68.0855 4.48675 68.0158C4.66051 67.9461 4.8187 67.8436 4.95202 67.7141C5.08533 67.5847 5.19109 67.4307 5.26357 67.2612C5.33586 67.0916 5.37344 66.9098 5.3738 66.7261V66.5687C5.37469 66.1984 5.22509 65.8428 4.9581 65.58C4.69093 65.3173 4.32821 65.1687 3.94938 65.1673L1.02716 65.1563C1.00343 65.1563 0.980669 65.166 0.963883 65.183C0.947116 65.2002 0.937685 65.2234 0.937685 65.2478ZM0.926949 69.0241V77.4549C0.926949 77.4913 0.941085 77.5262 0.966263 77.5518C0.991423 77.5776 1.02557 77.5921 1.06116 77.5921H3.9279C5.0465 77.5921 6.11929 77.1435 6.91042 76.345C7.70137 75.5466 8.1457 74.4638 8.1457 73.3346V73.1443C8.1457 72.0151 7.70137 70.9323 6.91042 70.1339C6.11929 69.3355 5.0465 68.8868 3.9279 68.8868H1.06116C1.02557 68.8868 0.991423 68.9013 0.966263 68.9271C0.941085 68.9527 0.926949 68.9877 0.926949 69.0241Z" fill="white"/>
<path d="M68.6712 75.9254V78.4301C68.6712 78.5155 68.63 78.5587 68.5477 78.56L67.8391 78.5783C67.7675 78.5796 67.7317 78.5435 67.7317 78.4703V64.6733C67.7317 64.6135 67.7616 64.5837 67.8212 64.5837L68.5262 64.58C68.5751 64.5787 68.6014 64.6032 68.605 64.6532C68.741 66.9018 68.5835 68.7844 68.6336 70.8482C68.6336 70.857 68.6367 70.8654 68.642 70.8722C68.6472 70.879 68.6547 70.8839 68.6633 70.8859C68.6717 70.8879 68.6807 70.8872 68.6889 70.8837C68.6971 70.8802 68.7041 70.8742 68.7088 70.8665C71.5344 65.6357 78.3451 68.5008 77.6919 74.136C77.1336 78.9442 70.9868 80.3713 68.7428 75.9071C68.695 75.8119 68.6712 75.818 68.6712 75.9254ZM72.7548 77.6525C73.8397 77.6525 74.8801 77.2024 75.6473 76.4012C76.4146 75.6001 76.8455 74.5135 76.8455 73.3804C76.8455 72.8194 76.7398 72.2638 76.5342 71.7455C76.3285 71.2271 76.0272 70.7562 75.6473 70.3595C75.2676 69.9629 74.8166 69.6482 74.3202 69.4334C73.824 69.2188 73.292 69.1083 72.7548 69.1083C72.2176 69.1083 71.6856 69.2188 71.1893 69.4334C70.6929 69.6482 70.242 69.9629 69.8623 70.3595C69.4824 70.7562 69.181 71.2271 68.9754 71.7455C68.7698 72.2638 68.664 72.8194 68.664 73.3804C68.664 74.5135 69.0949 75.6001 69.8623 76.4012C70.6294 77.2024 71.6698 77.6525 72.7548 77.6525Z" fill="white"/>
<path d="M11.8016 64.58H11.1037C11.0493 64.58 11.0053 64.625 11.0053 64.6806V78.4758C11.0053 78.5314 11.0493 78.5764 11.1037 78.5764H11.8016C11.856 78.5764 11.9 78.5314 11.9 78.4758V64.6806C11.9 64.625 11.856 64.58 11.8016 64.58Z" fill="white"/>
<path d="M101.773 68.9271H100.703C100.643 68.9271 100.613 68.8966 100.613 68.8356V68.2191C100.613 68.2042 100.616 68.1894 100.622 68.1757C100.628 68.162 100.636 68.1497 100.647 68.1395C100.657 68.1292 100.67 68.1212 100.683 68.1161C100.697 68.1108 100.712 68.1086 100.726 68.1093L101.768 68.1623C101.833 68.166 101.866 68.1344 101.866 68.0672V64.6733C101.866 64.6124 101.896 64.5818 101.955 64.5818H102.702C102.752 64.5818 102.777 64.6074 102.777 64.6587L102.788 68.0105C102.788 68.0824 102.823 68.119 102.893 68.1203L104.917 68.1623C104.976 68.1636 105.003 68.1935 105.001 68.252L104.989 68.7808C104.986 68.8783 104.937 68.9271 104.84 68.9271H102.9C102.827 68.9271 102.791 68.9643 102.789 69.0387C102.782 70.9611 102.783 72.8778 102.791 74.7892C102.798 76.4138 103.099 77.5445 104.79 77.7879C104.867 77.8001 104.906 77.8464 104.906 77.9269V78.4978C104.906 78.5722 104.87 78.6075 104.797 78.6039C102.453 78.4923 101.866 77.0048 101.868 74.888C101.87 72.9327 101.868 70.9763 101.862 69.0186C101.862 68.9577 101.833 68.9271 101.773 68.9271Z" fill="white"/>
<path d="M18.4604 78.6013C17.1308 78.5801 15.8641 78.0087 14.9389 77.013C14.0137 76.0176 13.5059 74.6792 13.5272 73.2925C13.5485 71.9059 14.0971 70.5845 15.0525 69.6191C16.0078 68.6538 17.2913 68.1234 18.6211 68.1446C19.9507 68.166 21.2175 68.7374 22.1426 69.7331C23.0678 70.7285 23.5754 72.0669 23.5542 73.4535C23.5329 74.8402 22.9842 76.1615 22.029 77.127C21.0738 78.0923 19.79 78.6227 18.4604 78.6013ZM18.6061 77.6485C19.688 77.6349 20.7203 77.1728 21.4759 76.3635C22.2314 75.5541 22.6483 74.464 22.6347 73.333C22.6281 72.7731 22.5159 72.2198 22.3047 71.705C22.0936 71.1901 21.7874 70.7238 21.4037 70.3326C21.0203 69.9413 20.5668 69.6328 20.0691 69.4246C19.5717 69.2166 19.0398 69.1128 18.5041 69.1196C17.4222 69.1331 16.3898 69.5953 15.6343 70.4045C14.8788 71.2139 14.4618 72.304 14.4754 73.4349C14.482 73.9949 14.5942 74.5482 14.8054 75.063C15.0166 75.5779 15.3227 76.0443 15.7062 76.4354C16.0899 76.8268 16.5433 77.1353 17.041 77.3435C17.5385 77.5515 18.0703 77.6552 18.6061 77.6485Z" fill="white"/>
<path d="M25.7523 72.9687C23.6443 71.3404 25.2602 67.9336 27.7601 68.1441C29.2365 68.2666 30.2135 69.3278 30.2064 70.8793C30.2064 70.9501 30.1718 70.9854 30.1026 70.9854H29.5317C29.5042 70.9856 29.4777 70.9754 29.4575 70.9567C29.4372 70.938 29.4249 70.9122 29.4226 70.8848C29.351 70.1114 29.0283 69.5437 28.4545 69.1814C26.5827 67.9995 24.6286 70.8756 26.4073 72.3521C27.6027 73.3438 29.7787 72.9943 30.1813 75.1039C30.9347 79.0558 25.1779 80.0401 24.8129 75.9071C24.8116 75.8919 24.8134 75.8767 24.8182 75.8622C24.8229 75.8478 24.8306 75.8346 24.8404 75.8234C24.8505 75.8123 24.8624 75.8033 24.8759 75.7973C24.8893 75.7912 24.9038 75.7881 24.9185 75.7881H25.6325C25.691 75.7881 25.7214 75.8174 25.7237 75.8759C25.7899 77.1292 26.9835 78.1465 28.1449 77.7037C29.6319 77.1365 30.0525 74.8313 28.3918 74.1653C27.4971 73.8085 26.5254 73.567 25.7523 72.9687Z" fill="white"/>
<path d="M32.6919 72.9175C31.0832 71.5672 31.7972 68.8338 33.6851 68.2776C35.4961 67.7433 37.2336 68.8832 37.1978 70.8774C37.1955 70.9493 37.159 70.9854 37.0887 70.9854H36.5447C36.513 70.9852 36.4824 70.9735 36.4588 70.9523C36.435 70.9311 36.4198 70.9018 36.4158 70.8701C36.2369 69.39 34.8894 68.3233 33.567 69.2326C32.7403 69.8016 32.4164 71 32.98 71.8782C34.17 73.7298 37.7222 72.6595 37.1853 76.1815C36.6735 79.5424 32.028 79.3211 31.8026 75.8979C31.8017 75.8838 31.8035 75.8697 31.8081 75.8563C31.8126 75.8432 31.8199 75.8309 31.8292 75.8207C31.8387 75.8104 31.85 75.8022 31.8627 75.7965C31.8754 75.7908 31.889 75.7881 31.9028 75.7881H32.5738C32.6585 75.7881 32.7057 75.8315 32.7152 75.918C32.955 78.205 35.879 78.4977 36.3979 76.2126C36.9187 73.9201 33.9106 73.9384 32.6919 72.9175Z" fill="white"/>
<path d="M43.461 78.6037C42.1318 78.5918 40.8616 78.0294 39.93 77.0401C38.9984 76.0507 38.4818 74.7156 38.4936 73.3284C38.5054 71.941 39.0449 70.6153 39.9932 69.6429C40.9416 68.6702 42.2211 68.1305 43.5503 68.1424C44.8797 68.1543 46.1499 68.7167 47.0815 69.706C48.0131 70.6954 48.5297 72.0305 48.5179 73.4177C48.5061 74.8051 47.9666 76.1308 47.0183 77.1032C46.0699 78.0759 44.7904 78.6156 43.461 78.6037ZM43.5655 77.6432C44.648 77.6314 45.6816 77.1715 46.4389 76.3643C47.196 75.5569 47.6149 74.4686 47.6035 73.3385C47.5918 72.2085 47.1507 71.1292 46.3771 70.3385C45.6034 69.5475 44.5606 69.1097 43.4782 69.1212C42.3957 69.1329 41.3621 69.5929 40.6048 70.4001C39.8477 71.2075 39.4288 72.2958 39.4402 73.4259C39.4519 74.5559 39.893 75.6352 40.6666 76.4261C41.4402 77.2169 42.4831 77.6547 43.5655 77.6432Z" fill="white"/>
<path d="M56.3327 70.0596C57.3187 67.2512 61.3934 67.65 62.1449 70.5445C62.2273 70.8592 62.2684 71.3477 62.2684 72.01C62.272 74.1652 62.275 76.32 62.2774 78.474C62.2774 78.5435 62.2439 78.5783 62.1772 78.5783H61.5043C61.4233 78.5783 61.3832 78.5367 61.3844 78.4538C61.3916 76.3644 61.3903 74.2781 61.3808 72.1948C61.3773 71.4776 61.2932 70.9347 61.1285 70.5664C60.2052 68.4972 57.3116 68.6014 56.6101 70.8226C56.5086 71.147 56.458 71.6893 56.458 72.4491C56.4592 74.447 56.4592 76.4462 56.458 78.4465C56.458 78.4815 56.4444 78.5149 56.4202 78.5396C56.3961 78.5643 56.3633 78.5783 56.3291 78.5783H55.6134C55.5477 78.5783 55.5149 78.5448 55.5149 78.4776C55.5198 76.2369 55.5244 73.9988 55.5293 71.763C55.5364 68.2465 50.6118 67.9903 50.601 72.1289C50.5951 74.228 50.5944 76.3273 50.5992 78.4264C50.5992 78.5215 50.5533 78.5697 50.4615 78.5709L49.7761 78.5801C49.7442 78.5801 49.7138 78.5671 49.6913 78.5442C49.6689 78.5212 49.6562 78.4901 49.6562 78.4575L49.6723 68.3947C49.6723 68.3634 49.6784 68.3325 49.6905 68.3036C49.7027 68.2748 49.7204 68.2491 49.7428 68.2276C49.7652 68.2061 49.7915 68.1896 49.8203 68.179C49.8491 68.1684 49.8797 68.164 49.9103 68.166L50.5151 68.2062C50.5701 68.2099 50.5975 68.2397 50.5975 68.2959V69.7449C50.5975 69.8547 50.6243 69.862 50.678 69.7669C51.494 68.3361 53.1654 67.6976 54.6113 68.4569C55.2197 68.7765 55.7458 69.3155 56.1896 70.0743C56.2468 70.1731 56.2946 70.1681 56.3327 70.0596Z" fill="white"/>
<path d="M83.7352 78.6053C83.077 78.5971 82.4269 78.4536 81.8219 78.183C81.2169 77.9124 80.6691 77.5202 80.2094 77.0286C79.7499 76.5368 79.3875 75.9555 79.1432 75.3175C78.899 74.6795 78.7774 73.9975 78.7857 73.3104C78.7939 72.6232 78.9317 71.9445 79.1912 71.3129C79.4506 70.6811 79.8266 70.109 80.2978 69.6289C80.7691 69.1488 81.3262 68.7705 81.9375 68.5151C82.5486 68.2596 83.2019 68.1325 83.8601 68.1407C84.5183 68.149 85.1684 68.2924 85.7734 68.563C86.3782 68.8336 86.9262 69.2259 87.3859 69.7175C87.8454 70.2091 88.2078 70.7905 88.4521 71.4285C88.6963 72.0665 88.8178 72.7486 88.8096 73.4356C88.8014 74.1228 88.6636 74.8016 88.4041 75.4331C88.1446 76.0647 87.7687 76.637 87.2975 77.1171C86.8262 77.597 86.2691 77.9756 85.6578 78.231C85.0467 78.4864 84.3934 78.6135 83.7352 78.6053ZM83.7792 77.6449C84.8611 77.6546 85.9028 77.2148 86.6748 76.4222C87.4466 75.6296 87.8857 74.5491 87.8954 73.4186C87.9002 72.8587 87.7993 72.3034 87.5987 71.7846C87.3981 71.2655 87.1016 70.7929 86.7261 70.3937C86.3507 69.9945 85.9037 69.6765 85.4105 69.4579C84.9173 69.2392 84.3876 69.1241 83.8519 69.1194C82.7699 69.1097 81.7283 69.5495 80.9563 70.3421C80.1845 71.1347 79.7454 72.2152 79.7357 73.3458C79.7309 73.9056 79.8316 74.4609 80.0324 74.9798C80.233 75.4988 80.5295 75.9714 80.905 76.3706C81.2804 76.7699 81.7274 77.0878 82.2206 77.3065C82.7138 77.5251 83.2434 77.6402 83.7792 77.6449Z" fill="white"/>
<path d="M106.486 68.1605H105.756C105.708 68.1605 105.669 68.2006 105.669 68.2501V78.4776C105.669 78.5272 105.708 78.5673 105.756 78.5673H106.486C106.535 78.5673 106.574 78.5272 106.574 78.4776V68.2501C106.574 68.2006 106.535 68.1605 106.486 68.1605Z" fill="white"/>
<path d="M117.37 70.8848L117.334 68.2922C117.333 68.2276 117.365 68.1952 117.429 68.1952H118.066C118.158 68.1952 118.204 68.2428 118.204 68.338L118.193 81.8953C118.193 81.9098 118.19 81.9242 118.185 81.9374C118.179 81.9507 118.171 81.9626 118.16 81.9725C118.15 81.9822 118.138 81.9897 118.124 81.9945C118.111 81.999 118.096 82.0009 118.082 81.9996L117.468 81.9502C117.386 81.9429 117.345 81.8971 117.345 81.813V76.0644C117.345 75.8508 117.296 75.8388 117.198 76.0278C115.844 78.613 112.657 79.4345 110.302 77.689C106.551 74.9062 108.163 68.2776 112.946 68.155C114.872 68.1056 116.418 69.1723 117.273 70.9085C117.279 70.919 117.288 70.9274 117.298 70.9323C117.309 70.9373 117.321 70.9386 117.332 70.9356C117.344 70.9329 117.353 70.9265 117.36 70.9171C117.367 70.9078 117.371 70.8965 117.37 70.8848ZM113.136 77.6422C113.673 77.6546 114.208 77.5569 114.709 77.3544C115.21 77.1519 115.667 76.8487 116.056 76.4621C116.444 76.0755 116.756 75.613 116.973 75.1012C117.19 74.5893 117.308 74.0381 117.321 73.479C117.346 72.3495 116.939 71.2565 116.19 70.4402C115.44 69.6238 114.41 69.151 113.325 69.1258C112.788 69.1133 112.254 69.211 111.753 69.4136C111.252 69.6161 110.794 69.9193 110.406 70.3059C110.017 70.6925 109.706 71.155 109.489 71.6667C109.272 72.1786 109.154 72.7299 109.141 73.289C109.116 74.4184 109.523 75.5115 110.272 76.3278C111.021 77.1442 112.052 77.617 113.136 77.6422Z" fill="white"/>
<path d="M134.125 78.3532C132.269 77.8665 130.873 75.7735 130.702 73.9548C130.186 68.4624 136.861 66.0034 139.96 70.4713C139.99 70.5141 140.004 70.5662 139.999 70.6182C139.994 70.6703 139.972 70.7186 139.935 70.7549L133.754 76.9243C133.739 76.9393 133.728 76.9576 133.721 76.9781C133.714 76.9984 133.712 77.0202 133.715 77.0416C133.718 77.063 133.725 77.0836 133.737 77.1016C133.749 77.1197 133.765 77.1347 133.783 77.1457C135.735 78.2873 137.988 77.453 139.293 75.6984C139.343 75.6302 139.398 75.6258 139.457 75.6856L139.882 76.1211C139.919 76.1593 139.941 76.2104 139.944 76.2642C139.946 76.3179 139.929 76.3706 139.896 76.412C138.369 78.3171 136.445 78.9643 134.125 78.3532ZM133.185 76.4852L138.717 70.7896C138.751 70.7538 138.77 70.7053 138.77 70.6548C138.77 70.6043 138.75 70.5562 138.715 70.5207L138.493 70.2956C137.733 69.5239 136.703 69.0932 135.631 69.0983C134.558 69.1035 133.531 69.544 132.774 70.3231L132.688 70.4127C131.931 71.192 131.507 72.2456 131.51 73.3423C131.512 74.4389 131.94 75.4884 132.7 76.2601L132.922 76.4852C132.957 76.5208 133.004 76.5408 133.054 76.5408C133.103 76.5408 133.15 76.5208 133.185 76.4852Z" fill="white"/>
<path d="M99.0547 75.607C99.0544 75.5929 99.0494 75.5793 99.0404 75.5685C99.0315 75.5577 99.0193 75.5504 99.0059 75.5477C98.9923 75.5449 98.9783 75.547 98.966 75.5534C98.9538 75.5598 98.9441 75.5704 98.9384 75.5832C97.2259 79.7144 91.5264 79.59 90.17 75.2575C90.0125 74.7525 89.9314 73.9616 89.9266 72.8845C89.9194 71.3563 89.8992 69.8278 89.8658 68.2995C89.8645 68.23 89.898 68.1953 89.966 68.1953H90.7247C90.7843 68.1953 90.8147 68.2264 90.816 68.2886C90.8172 69.9658 90.8178 71.6422 90.8178 73.3181C90.8178 78.5453 97.7735 79.4674 98.9134 74.3079C99.2229 72.9046 99.0655 70.1401 99.0332 68.2666C99.032 68.219 99.0547 68.1953 99.1012 68.1953H99.8081C99.8677 68.1953 99.8976 68.2258 99.8976 68.2867V78.4923C99.8976 78.5557 99.8659 78.5868 99.8027 78.5856L99.1174 78.5636C99.0588 78.5612 99.0297 78.5301 99.0297 78.4703L99.0547 75.607Z" fill="white"/>
<path d="M128.633 75.5557C128.633 75.5449 128.63 75.5345 128.624 75.5263C128.617 75.5179 128.608 75.5122 128.598 75.51C128.587 75.5078 128.577 75.5095 128.567 75.5144C128.557 75.5193 128.55 75.5276 128.545 75.5374C126.849 79.5882 121.275 79.7455 119.773 75.2868C119.591 74.7428 119.497 73.7792 119.492 72.396C119.489 71.0262 119.489 69.6566 119.494 68.2867C119.494 68.2258 119.525 68.1953 119.585 68.1953H120.298C120.363 68.1953 120.395 68.2287 120.394 68.2959C120.375 69.7839 120.378 71.2714 120.403 72.7583C120.42 73.7549 120.522 74.5092 120.709 75.0215C122.139 78.9295 127.395 78.5179 128.443 74.5476C128.552 74.1391 128.608 73.4577 128.613 72.504C128.622 71.1012 128.622 69.6974 128.615 68.2922C128.615 68.2276 128.647 68.1953 128.71 68.1953H129.379C129.439 68.1953 129.469 68.2258 129.469 68.2867V78.4868C129.469 78.5477 129.439 78.5782 129.379 78.5782H128.749C128.713 78.5782 128.678 78.5634 128.652 78.5369C128.626 78.5105 128.611 78.4747 128.611 78.4374L128.633 75.5557Z" fill="white"/>
</svg>
