<svg width="47" height="43" viewBox="0 0 47 43" fill="none" xmlns="http://www.w3.org/2000/svg">
<path d="M36.3045 31.5244L42.0059 36.7704C42.2718 37.0238 42.4189 37.3632 42.4156 37.7156C42.4122 38.0679 42.2587 38.4049 41.9881 38.6541C41.7175 38.9032 41.3514 39.0445 40.9686 39.0476C40.5859 39.0507 40.2172 38.9152 39.9419 38.6704L34.2405 33.4218C30.5148 36.3604 25.6975 37.8563 20.7995 37.5957C15.9015 37.335 11.3035 35.3381 7.97043 32.0238C4.63732 28.7095 2.82816 24.3356 2.92259 19.8198C3.01701 15.3041 5.00767 10.9975 8.47686 7.80377C11.946 4.61005 16.6241 2.77745 21.5294 2.69053C26.4346 2.6036 31.1858 4.2691 34.7859 7.33755C38.3861 10.406 40.5553 14.6389 40.8384 19.1479C41.1215 23.657 39.4966 28.0918 36.3045 31.5217V31.5244ZM21.8948 34.9375C26.1531 34.9375 30.2371 33.3802 33.2482 30.6082C36.2593 27.8362 37.951 24.0765 37.951 20.1563C37.951 16.236 36.2593 12.4764 33.2482 9.70433C30.2371 6.93231 26.1531 5.375 21.8948 5.375C17.6364 5.375 13.5525 6.93231 10.5414 9.70433C7.53024 12.4764 5.83861 16.236 5.83861 20.1563C5.83861 24.0765 7.53024 27.8362 10.5414 30.6082C13.5525 33.3802 17.6364 34.9375 21.8948 34.9375Z" fill="white"/>
</svg>
