<svg width="20" height="20" viewBox="0 0 20 20" fill="none" xmlns="http://www.w3.org/2000/svg">
<path d="M16.6667 2.5H3.33333C1.95271 2.5 0.833334 3.61937 0.833334 5V15C0.833334 16.3806 1.95271 17.5 3.33333 17.5H16.6667C18.0473 17.5 19.1667 16.3806 19.1667 15V5C19.1667 3.61937 18.0473 2.5 16.6667 2.5ZM16.6667 4.16667C16.7629 4.16667 16.8554 4.18292 16.9413 4.21312L10 9.76625L3.05875 4.21312C3.14458 4.18292 3.23708 4.16667 3.33333 4.16667H16.6667ZM16.6667 15.8333H3.33333C2.87313 15.8333 2.5 15.4602 2.5 15V5.90042L9.47938 11.484C9.63146 11.6058 9.81563 11.6667 10 11.6667C10.1844 11.6667 10.3685 11.6058 10.5206 11.484L17.5 5.90042V15C17.5 15.4602 17.1269 15.8333 16.6667 15.8333Z" fill="white"/>
</svg>
