<svg width="20" height="20" viewBox="0 0 20 20" fill="none" xmlns="http://www.w3.org/2000/svg">
<g clip-path="url(#clip0_39_1388)">
<mask id="mask0_39_1388" style="mask-type:luminance" maskUnits="userSpaceOnUse" x="0" y="0" width="20" height="20">
<path d="M20 0H0V20H20V0Z" fill="white"/>
</mask>
<g mask="url(#mask0_39_1388)">
<path d="M15.4166 4.5835H15.425M14.1666 10.0002C14.1666 12.3013 12.3011 14.1668 9.99998 14.1668C7.6988 14.1668 5.83331 12.3013 5.83331 10.0002C5.83331 7.69898 7.6988 5.8335 9.99998 5.8335C12.3011 5.8335 14.1666 7.69898 14.1666 10.0002ZM9.99998 19.1668C10.6946 19.1668 11.401 19.1552 12.0956 19.1359C14.2809 19.0752 15.3736 19.0448 16.3981 18.5084C17.224 18.076 18.0758 17.2242 18.5082 16.3982C19.0446 15.3737 19.0751 14.2811 19.1357 12.0958C19.1551 11.4012 19.1666 10.6948 19.1666 10.0002C19.1666 9.3055 19.1551 8.59916 19.1357 7.90449C19.0751 5.71921 19.0446 4.62657 18.5082 3.6021C18.0758 2.77615 17.224 1.92435 16.3981 1.49188C15.3736 0.955463 14.2809 0.925104 12.0956 0.864379C11.401 0.845079 10.6946 0.833496 9.99998 0.833496C9.30531 0.833496 8.59898 0.845079 7.90431 0.864379C5.71903 0.925104 4.62639 0.955463 3.60191 1.49188C2.77596 1.92435 1.92416 2.77615 1.4917 3.6021C0.95528 4.62657 0.924921 5.71921 0.864196 7.90449C0.844896 8.59916 0.833313 9.3055 0.833313 10.0002C0.833313 10.6948 0.844896 11.4012 0.864196 12.0958C0.924921 14.2811 0.95528 15.3737 1.4917 16.3982C1.92416 17.2242 2.77596 18.076 3.60191 18.5084C4.62639 19.0448 5.71903 19.0752 7.90431 19.1359C8.59898 19.1552 9.30531 19.1668 9.99998 19.1668Z" stroke="white" stroke-width="2" stroke-linecap="round" stroke-linejoin="round"/>
</g>
</g>
<defs>
<clipPath id="clip0_39_1388">
<rect width="20" height="20" fill="white"/>
</clipPath>
</defs>
</svg>
