<svg width="20" height="20" viewBox="0 0 20 20" fill="none" xmlns="http://www.w3.org/2000/svg">
<g clip-path="url(#clip0_39_1337)">
<path d="M10 19.9999C9.85836 20.0006 9.71798 19.9733 9.58687 19.9197C9.45577 19.8661 9.33652 19.7871 9.23594 19.6874L4.09844 14.5499C3.28728 13.7432 2.64519 12.7828 2.20975 11.7249C1.7743 10.6671 1.55426 9.53294 1.5625 8.38898C1.55901 7.28139 1.77652 6.18424 2.20231 5.16176C2.62809 4.13928 3.2536 3.21203 4.04219 2.43429C5.63488 0.878093 7.77325 0.00683594 10 0.00683594C12.2268 0.00683594 14.3651 0.878093 15.9578 2.43429C16.7464 3.21203 17.3719 4.13928 17.7977 5.16176C18.2235 6.18424 18.441 7.28139 18.4375 8.38898C18.4457 9.53294 18.2257 10.6671 17.7903 11.7249C17.3548 12.7828 16.7127 13.7432 15.9016 14.5499L10.7641 19.678C10.6642 19.7795 10.5453 19.8601 10.4142 19.9154C10.2831 19.9706 10.1423 19.9993 10 19.9999ZM10 0.937413C8.01732 0.932846 6.11285 1.71047 4.7 3.10148C4.00006 3.79252 3.44497 4.61623 3.06722 5.52439C2.68946 6.43256 2.49663 7.40695 2.5 8.39054C2.4925 9.41084 2.6886 10.4224 3.07682 11.366C3.46504 12.3096 4.03758 13.1662 4.76094 13.8858L9.89687 19.014C9.91014 19.0277 9.92604 19.0387 9.94362 19.0461C9.9612 19.0536 9.98011 19.0575 9.99922 19.0575C10.0183 19.0575 10.0372 19.0536 10.0548 19.0461C10.0724 19.0387 10.0883 19.0277 10.1016 19.014L15.2391 13.8858C15.9624 13.1662 16.535 12.3096 16.9232 11.366C17.3114 10.4224 17.5075 9.41084 17.5 8.39054C17.5034 7.40695 17.3105 6.43256 16.9328 5.52439C16.555 4.61623 15.9999 3.79252 15.3 3.10148C13.8872 1.71047 11.9827 0.932846 10 0.937413Z" fill="white"/>
<path d="M10 12.7202C9.01519 12.7198 8.061 12.3779 7.29991 11.753C6.53883 11.128 6.01792 10.2585 5.82589 9.29261C5.63387 8.32671 5.78261 7.32411 6.24678 6.45555C6.71096 5.587 7.46185 4.9062 8.3716 4.52911C9.28135 4.15201 10.2937 4.10193 11.2362 4.3874C12.1787 4.67287 12.9932 5.27623 13.5408 6.09473C14.0884 6.91323 14.3354 7.89626 14.2396 8.8764C14.1439 9.85654 13.7113 10.7732 13.0156 11.4702C12.62 11.8668 12.15 12.1814 11.6325 12.3959C11.115 12.6104 10.5602 12.7206 10 12.7202ZM10 5.14365C9.23163 5.14487 8.48744 5.41242 7.89419 5.90073C7.30093 6.38904 6.89531 7.06791 6.74639 7.82172C6.59747 8.57552 6.71448 9.35764 7.07747 10.0349C7.44047 10.7121 8.02701 11.2425 8.7372 11.5358C9.44738 11.8292 10.2373 11.8672 10.9724 11.6435C11.7075 11.4198 12.3423 10.9482 12.7687 10.309C13.1951 9.66982 13.3867 8.90257 13.311 8.13794C13.2352 7.37331 12.8967 6.6586 12.3531 6.11553C12.0441 5.80669 11.6772 5.56187 11.2734 5.39509C10.8696 5.22832 10.4369 5.14287 10 5.14365Z" fill="white"/>
</g>
<defs>
<clipPath id="clip0_39_1337">
<rect width="20" height="20" fill="white"/>
</clipPath>
</defs>
</svg>
