<svg width="22" height="14" viewBox="0 0 22 14" fill="none" xmlns="http://www.w3.org/2000/svg">
<path fill-rule="evenodd" clip-rule="evenodd" d="M0.500002 6.99938C0.500002 6.80047 0.57902 6.60971 0.719671 6.46905C0.860325 6.3284 1.05109 6.24938 1.25 6.24938H18.9395L14.219 1.53038C14.1493 1.46065 14.094 1.37787 14.0562 1.28676C14.0185 1.19565 13.9991 1.098 13.9991 0.999383C13.9991 0.900768 14.0185 0.803117 14.0562 0.712008C14.094 0.620899 14.1493 0.538115 14.219 0.468383C14.2887 0.398651 14.3715 0.343337 14.4626 0.305598C14.5537 0.26786 14.6514 0.248436 14.75 0.248436C14.8486 0.248436 14.9463 0.26786 15.0374 0.305598C15.1285 0.343337 15.2113 0.398651 15.281 0.468383L21.281 6.46838C21.3508 6.53805 21.4063 6.62082 21.4441 6.71193C21.4819 6.80305 21.5013 6.90073 21.5013 6.99938C21.5013 7.09803 21.4819 7.19571 21.4441 7.28683C21.4063 7.37795 21.3508 7.46071 21.281 7.53038L15.281 13.5304C15.2113 13.6001 15.1285 13.6554 15.0374 13.6932C14.9463 13.7309 14.8486 13.7503 14.75 13.7503C14.6514 13.7503 14.5537 13.7309 14.4626 13.6932C14.3715 13.6554 14.2887 13.6001 14.219 13.5304C14.1493 13.4607 14.094 13.3779 14.0562 13.2868C14.0185 13.1956 13.9991 13.098 13.9991 12.9994C13.9991 12.9008 14.0185 12.8031 14.0562 12.712C14.094 12.6209 14.1493 12.5381 14.219 12.4684L18.9395 7.74938H1.25C1.05109 7.74938 0.860325 7.67037 0.719671 7.52971C0.57902 7.38906 0.500002 7.1983 0.500002 6.99938Z" fill="white"/>
</svg>
