<svg width="140" height="140" viewBox="0 0 140 140" fill="none" xmlns="http://www.w3.org/2000/svg">
<path d="M58.6537 20.5015C73.2069 30.569 66.9489 44.6655 62.0008 50.4553C55.4759 53.8897 39.8911 58.1717 29.7512 47.8242C19.6112 37.4767 22.5752 13.3779 25.3247 2.62199C29.0158 6.36321 40.4622 7.91708 58.6537 20.5015Z" fill="url(#paint0_linear_21_2120)"/>
<path d="M45.4338 30.3427C45.3036 26.512 44.7654 18.2719 43.6541 15.9572" stroke="white"/>
<path d="M61.5128 50.1354C50.5887 35.0438 35.2616 21.693 26.0882 4.44424" stroke="white"/>
<path d="M55.9444 43.1811C57.0733 38.4131 58.9981 27.9979 57.6663 24.4811" stroke="white"/>
<path d="M58.1717 45.9624C56.9834 46.5055 49.1536 50.6268 36.5304 44.9968" stroke="white"/>
<path d="M48.424 34.9473C46.0723 35.3888 37.1154 34.1447 30.7722 29.9871" stroke="white"/>
<path d="M106.796 89.96C90.7902 98.0622 78.7496 87.4039 74.73 81.062C73.7434 74.3346 75.4139 59.7931 89.989 55.4456C104.564 51.098 128.16 62.9297 138.136 69.389C132.856 70.9815 126.804 79.8322 106.796 89.96Z" fill="url(#paint1_linear_21_2120)"/>
<path d="M101.836 75.2081C105.821 76.5921 114.493 79.3559 117.303 79.3391" stroke="white"/>
<path d="M75.2485 80.7836C95.0011 77.6355 114.68 70.1723 135.967 69.3104" stroke="white"/>
<path d="M84.559 78.8909C89.0162 81.68 98.9633 87.3253 103.094 87.5944" stroke="white"/>
<path d="M80.8348 79.6499C80.7397 78.4569 79.5557 70.3841 90.2528 62.1483" stroke="white"/>
<path d="M95.9428 75.8853C96.405 73.7707 101.17 66.8559 107.91 63.2347" stroke="white"/>
<path d="M21.8392 98.9708C17.0005 79.3615 35.1299 70.5653 44.7995 68.6183C53.8918 69.9784 72.1936 76.8933 72.662 93.6725C73.1304 110.452 49.3688 130.908 37.4295 139.039C37.2368 132.955 27.8876 123.483 21.8392 98.9708Z" fill="url(#paint2_linear_21_2120)"/>
<path d="M42.7721 99.0311C39.5573 102.704 32.8833 110.786 31.9063 113.729" stroke="white"/>
<path d="M44.9768 69.2597C42.0464 91.0242 44.749 114.246 38.3025 136.801" stroke="white"/>
<path d="M44.1259 79.6626C38.9174 83.3299 28.046 91.7199 26.2282 95.9412" stroke="white"/>
<path d="M44.4663 75.5024C46.0504 75.8271 56.9612 77.4592 63.8604 91.5672" stroke="white"/>
<path d="M43.9866 92.6304C46.57 93.8651 53.8614 101.304 56.1711 109.635" stroke="white"/>
<path d="M100.904 53.001C99.5583 56.4645 95.5432 63.5581 90.2516 64.2237C83.6371 65.0556 80.9738 62.8597 77.3867 63.6353" stroke="url(#paint3_linear_21_2120)" stroke-width="2"/>
<path d="M78.1175 40.563C74.0246 41.9 66.0865 45.6908 67.0771 50.1579C68.3154 55.7416 73.3403 57.3322 75.5852 57.3324" stroke="url(#paint4_linear_21_2120)" stroke-width="2"/>
<path d="M78.1175 40.563C74.0246 41.9 66.0865 45.6908 67.0771 50.1579C68.3154 55.7416 73.3403 57.3322 75.5852 57.3324" stroke="url(#paint5_linear_21_2120)" stroke-width="2"/>
<path d="M76.7936 36.1532C80.1407 37.7132 86.0257 36.9051 88.5498 36.306C94.2424 35.3074 96.4727 39.3607 96.8762 41.5121C100.802 44.9196 107.278 54.2176 101.771 64.15C96.2636 74.0825 79.3308 76.7151 71.5527 76.7899C64.4159 76.5467 59.424 72.9902 57.8202 71.2424C51.1441 70.9387 48.4606 66.3012 48.6634 64.522C48.8256 63.0987 47.72 60.9257 47.1469 60.0171C46.0985 56.1406 50.3678 51.8029 52.6335 50.1187C52.0505 46.9577 54.6945 40.5227 58.2168 37.1729C61.739 33.8232 72.6097 34.2031 76.7936 36.1532Z" fill="url(#paint6_linear_21_2120)"/>
<path d="M65.2507 78.5483C51.3321 73.0197 48.8069 62.5651 51.2216 59.2594C51.8488 57.9472 54.5521 53.3393 60.3473 45.4056C67.5914 35.4885 107.926 42.421 103.148 59.1902C98.3711 75.9593 82.6489 85.459 65.2507 78.5483Z" fill="#FFE5E7"/>
<path fill-rule="evenodd" clip-rule="evenodd" d="M52.5912 49.8421C53.3551 52.6709 55.0961 56.1502 58.6796 59.507C59.7058 60.4913 62.2268 63.3762 64.1018 67.0408C67.1551 69.7604 76.7289 73.5913 90.5971 67.1576C94.4418 65.4144 102.322 60.0657 103.474 52.4865C104.278 56.0144 104.056 60.0273 101.77 64.1496C96.2631 74.082 79.3302 76.7146 71.5522 76.7894C64.4154 76.5462 59.4235 72.9898 57.8197 71.2419C51.1435 70.9382 48.46 66.3007 48.6628 64.5215C48.8251 63.0982 47.7195 60.9252 47.1464 60.0166C46.098 56.1401 50.3673 51.8024 52.633 50.1182C52.6165 50.0287 52.6026 49.9367 52.5912 49.8421Z" fill="#ECABA3"/>
<path d="M64.7795 59.5257C65.6036 58.1631 67.9453 53.0529 69.0132 50.6682C69.5038 52.1257 73.3341 54.4542 73.8661 54.6057C74.3981 54.7572 83.6207 57.8625 84.2112 57.7111L64.2848 62.8191C64.1064 62.2891 63.9555 60.8884 64.7795 59.5257Z" fill="url(#paint7_linear_21_2120)"/>
<ellipse cx="7.31401" cy="6.15136" rx="7.31401" ry="6.15136" transform="matrix(-0.96868 0.248312 0.319032 0.947744 83.1224 39.7109)" fill="url(#paint8_linear_21_2120)"/>
<path d="M75.1095 49.2478C74.7414 50.2485 75.3847 51.4857 76.7766 51.9115C78.1685 52.3372 79.4998 51.704 79.8679 50.7033C80.236 49.7027 79.5926 48.4655 78.2008 48.0397C76.8089 47.614 75.4776 48.2472 75.1095 49.2478Z" fill="#FAE2E5" stroke="url(#paint9_linear_21_2120)" stroke-width="2"/>
<path d="M83.5706 48.6654C85.2433 46.3943 83.8059 43.8073 82.8782 42.7978C83.7797 43.0944 85.7084 44.3464 86.2105 46.9811C86.7126 49.6159 84.2185 54.4005 83.2745 54.9303C82.3304 55.4602 79.4644 55.0434 75.9909 53.7749C71.01 51.9557 70.5273 47.547 70.5273 47.547C70.0951 45.7867 71.8769 43.4589 72.7179 43.0993C73.3908 42.8117 73.4811 43.1436 73.4422 43.3455C72.1583 43.8185 71.9417 46.033 72.0034 47.1687C72.065 48.3043 74.0486 50.3866 75.7339 51.106C77.4191 51.8255 81.4798 51.5042 83.5706 48.6654Z" fill="url(#paint10_linear_21_2120)"/>
<path d="M94.541 47.4352C95.5324 46.9507 96.8167 48.0033 97.1735 49.0633C97.5303 50.1232 98.5115 53.0382 95.8197 57.9022C92.7367 63.4732 88.1002 64.3429 86.0121 64.0146C83.86 63.6547 78.7704 63.0787 75.6289 63.6537C72.4874 64.2287 67.9266 62.3657 66.0389 61.3623C65.817 61.1793 65.7418 60.5748 67.2165 59.6211C68.6913 58.6673 76.4146 58.3667 80.092 58.3356C72.335 56.0478 71.3884 54.8375 69.7308 52.7183L69.6821 52.6561C68.3314 50.9297 69.2711 47.1481 70.1843 46.0504C69.6555 47.3374 70.3593 49.2807 71.3917 51.0664C73.7753 55.1889 81.0158 55.3641 83.3806 56.1972C85.7455 57.0303 88.5978 57.8824 92.2708 55.9333C95.2093 54.3741 94.8458 51.675 94.2968 50.5203C93.9651 49.6938 93.5496 47.9196 94.541 47.4352Z" fill="#F2B9AE"/>
<path d="M58.454 42.6411C59.8831 37.3811 71.3612 35.7341 78.6682 40.7698C62.161 42.6983 61.3351 56.4396 64.575 58.9195C67.1669 60.9034 69.5898 66.9895 70.4772 69.7846C69.5551 69.1094 67.5633 67.7969 66.9729 67.9482C59.8167 64.3132 56.5204 49.7576 58.454 42.6411Z" fill="#F2B9AE"/>
<path d="M97.3661 49.1582C98.2914 51.2719 99.2399 56.2486 95.6312 59.2463C91.1203 62.9934 92.6993 62.4447 88.1544 64.1855" stroke="url(#paint11_linear_21_2120)"/>
<path d="M97.451 54.1738C96.9149 58.7731 89.2045 64.9236 80.3282 64.7522C71.4518 64.5807 71.1841 63.7857 67.4877 61.8547" stroke="url(#paint12_linear_21_2120)"/>
<path d="M80.4738 50.897C76.6361 51.8807 74.7586 51.0666 73.2932 49.5711C71.8278 48.0757 69.5149 44.0628 75.1514 41.7543" stroke="url(#paint13_linear_21_2120)"/>
<path d="M80.4738 50.897C76.6361 51.8807 74.7586 51.0666 73.2932 49.5711C71.8278 48.0757 69.5149 44.0628 75.1514 41.7543" stroke="url(#paint14_linear_21_2120)"/>
<path d="M80.4738 50.897C76.6361 51.8807 74.7586 51.0666 73.2932 49.5711C71.8278 48.0757 69.5149 44.0628 75.1514 41.7543" stroke="url(#paint15_linear_21_2120)"/>
<path d="M84.0995 47.3761C81.3047 52.4105 76.7492 52.6906 74.0625 49.949C71.3759 47.2073 72.2169 43.5134 77.8534 41.2049" stroke="url(#paint16_linear_21_2120)"/>
<path d="M77.778 40.5055C76.9646 39.9944 66.8977 35.8102 61.3674 39.3868C55.8371 42.9634 56.6698 52.1055 60.2007 59.2605" stroke="url(#paint17_linear_21_2120)"/>
<path d="M71.6892 38.6115C57.0944 37.1712 58.3975 51.0581 59.4872 57.14C60.3995 62.2316 65.6272 62.043 70.8434 69.9175" stroke="white"/>
<path d="M52.3379 50.1938C48.152 53.9535 42.5513 63.0368 53.6359 69.2918C67.4916 77.1106 73.1791 77.8116 78.8326 76.5063" stroke="url(#paint18_linear_21_2120)"/>
<path d="M103.698 54.1558C103.585 56.1999 106.631 64.7745 95.4369 71.5302C86.4814 76.9348 73.4098 77.2246 67.9934 76.694" stroke="url(#paint19_linear_21_2120)"/>
<path d="M68.9069 49.3999C67.9605 51.0339 68.453 55.1009 77.9948 58.297M69.9337 46.2581C67.3555 49.078 68.0268 58.6932 87.4754 57.8818" stroke="url(#paint20_linear_21_2120)"/>
<path d="M29.6973 47.4712C33.2968 49.2125 40.4691 53.893 40.3625 58.6843C40.2293 64.6735 37.3894 66.6835 37.6743 69.9829" stroke="url(#paint21_linear_21_2120)" stroke-width="2"/>
<path d="M12.3896 65.6768C13.2124 69.5131 16.1266 77.1436 21.2014 76.9749C27.5449 76.7641 30.0929 72.5668 30.4492 70.579" stroke="url(#paint22_linear_21_2120)" stroke-width="2"/>
<path d="M12.3896 65.6768C13.2124 69.5131 16.1266 77.1436 21.2014 76.9749C27.5449 76.7641 30.0929 72.5668 30.4492 70.579" stroke="url(#paint23_linear_21_2120)" stroke-width="2"/>
<path d="M7.32476 66.15C9.57307 63.4335 9.61687 58.0941 9.35772 55.7639C9.16121 50.5647 13.9772 49.2327 16.4097 49.2166C20.7836 46.2803 32.0468 42.0208 42.1078 48.4729C52.1688 54.925 52.3813 70.3368 51.2299 77.2361C49.8302 83.5173 45.1232 87.3735 42.9446 88.5165C41.5514 94.3801 36.0204 96.0208 34.0939 95.559C32.5527 95.1896 29.9851 95.824 28.8939 96.1874C24.4601 96.5008 20.362 92.0323 18.8671 89.7589C15.2948 89.7738 8.62995 86.4119 5.50095 82.7616C2.37194 79.1113 4.51436 69.5455 7.32476 66.15Z" fill="url(#paint24_linear_21_2120)"/>
<path d="M52.1673 83.0966C43.8734 94.5447 31.9636 95.1225 28.7074 92.46C27.3622 91.6965 22.7182 88.5719 14.9033 82.1818C5.13472 74.1941 19.164 39.5775 36.8672 46.4675C54.5704 53.3575 62.5348 68.7864 52.1673 83.0966Z" fill="#FFE5E7"/>
<path fill-rule="evenodd" clip-rule="evenodd" d="M18.5561 89.752C21.7914 89.5243 25.8978 88.5345 30.1616 85.8936C31.4081 85.1411 34.9838 83.3663 39.3155 82.2872C42.7938 80.0148 48.5296 72.1448 43.6466 58.8439C42.3373 55.1629 37.6989 47.3367 29.5377 45.1142C33.549 44.9623 37.9316 45.795 42.1072 48.4728C52.1682 54.9249 52.3807 70.3367 51.2293 77.236C49.8297 83.5171 45.1226 87.3734 42.9441 88.5164C41.5509 94.38 36.0198 96.0207 34.0933 95.5589C32.5521 95.1895 29.9845 95.8239 28.8934 96.1872C24.4595 96.5007 20.3614 92.0322 18.8666 89.7588C18.7655 89.7592 18.6619 89.7569 18.5561 89.752Z" fill="#ECABA3"/>
<path d="M31.151 80.4963C29.7815 79.5505 24.5272 76.6664 22.0713 75.3425C23.7536 75.1393 26.9246 72.1168 27.1758 71.6698C27.4269 71.2227 32.3083 63.5485 32.2353 63.0017L34.698 81.4568C34.0863 81.5308 32.5204 81.4421 31.151 80.4963Z" fill="url(#paint25_linear_21_2120)"/>
<ellipse cx="6.61999" cy="6.77829" rx="6.61999" ry="6.77829" transform="matrix(0.132272 0.991213 0.992779 -0.119958 12.2463 61.1108)" fill="url(#paint26_linear_21_2120)"/>
<path d="M21.4908 69.6893C22.6102 70.2093 24.0533 69.7743 24.7017 68.6786C25.3502 67.5829 24.9334 66.2839 23.814 65.7638C22.6946 65.2438 21.2516 65.6788 20.6031 66.7745C19.9546 67.8702 20.3714 69.1692 21.4908 69.6893Z" fill="#FAE2E5" stroke="url(#paint27_linear_21_2120)" stroke-width="2"/>
<path d="M22.1741 62.1329C19.9392 60.2916 16.8633 61.154 15.6047 61.8155C16.0743 61.0642 17.7585 59.5549 20.7387 59.5282C23.7189 59.5015 28.5906 62.4689 29.0241 63.3889C29.4577 64.3089 28.5443 66.7807 26.5968 69.6553C23.8042 73.7774 18.8741 73.5055 18.8741 73.5055C16.8677 73.609 14.5876 71.662 14.3252 70.8602C14.1153 70.2188 14.495 70.1915 14.711 70.258C15.0282 71.4698 17.4317 72.0129 18.6917 72.1384C19.9517 72.264 22.5587 70.8377 23.618 69.4596C24.6774 68.0814 24.9677 64.4347 22.1741 62.1329Z" fill="url(#paint28_linear_21_2120)"/>
<path d="M22.5608 52.2235C22.1847 51.2688 23.5471 50.2985 24.7707 50.1507C25.9942 50.0028 29.3588 49.5963 34.2866 52.7514C39.9306 56.3651 40.1527 60.6087 39.4601 62.4056C38.7225 64.2542 37.2811 68.6697 37.4159 71.5427C37.5506 74.4158 34.7762 78.1589 33.3722 79.6713C33.1355 79.8388 32.4582 79.8096 31.6421 78.3524C30.8261 76.8952 31.7201 70.0084 32.2692 66.7472C28.5202 73.2531 27.0377 73.8994 24.4418 75.0311L24.3655 75.0643C22.2508 75.9866 18.2367 74.5547 17.1731 73.572C18.5061 74.2443 20.7571 73.9293 22.8866 73.2983C27.8031 71.8415 29.1444 65.4578 30.4366 63.4959C31.7289 61.5339 33.1193 59.1434 31.5562 55.5817C30.3057 52.7323 27.2767 52.6261 25.9185 52.9291C24.9559 53.0917 22.9368 53.1782 22.5608 52.2235Z" fill="#F2B9AE"/>
<path d="M11.5588 83.4182C5.99479 81.3184 6.00227 70.8933 12.7049 65.2216C12.2098 80.1447 27.2064 83.0555 30.4504 80.5799C33.0455 78.5994 40.1299 77.4193 43.3478 77.0768C42.4582 77.7862 40.6973 79.3418 40.7703 79.8886C35.6335 85.6489 19.0866 86.2592 11.5588 83.4182Z" fill="#F2B9AE"/>
<path d="M24.9062 49.9964C27.3798 49.5123 33.0092 49.4618 35.7369 53.1328C39.1465 57.7215 38.7929 56.2362 39.9884 60.5369" stroke="url(#paint29_linear_21_2120)"/>
<path d="M30.441 50.7163C35.4193 51.9206 40.9674 59.7237 39.3707 67.5566C37.7741 75.3895 36.8565 75.5004 34.1443 78.4674" stroke="url(#paint30_linear_21_2120)"/>
<path d="M24.1405 65.2286C24.6148 68.7829 23.4208 70.3163 21.5421 71.3768C19.6633 72.4372 14.8787 73.8488 13.2313 68.4915" stroke="url(#paint31_linear_21_2120)"/>
<path d="M24.1405 65.2286C24.6148 68.7829 23.4208 70.3163 21.5421 71.3768C19.6633 72.4372 14.8787 73.8488 13.2313 68.4915" stroke="url(#paint32_linear_21_2120)"/>
<path d="M24.1405 65.2286C24.6148 68.7829 23.4208 70.3163 21.5421 71.3768C19.6633 72.4372 14.8787 73.8488 13.2313 68.4915" stroke="url(#paint33_linear_21_2120)"/>
<path d="M20.8409 61.4611C25.9399 64.7344 25.5258 68.8128 22.0814 70.757C18.637 72.7012 14.7038 71.3706 13.0565 66.0133" stroke="url(#paint34_linear_21_2120)"/>
<path d="M12.2737 65.9684C11.5819 66.6077 5.37887 74.8583 8.43915 80.3227C11.4994 85.7871 21.6959 86.4997 30.1328 84.5079" stroke="url(#paint35_linear_21_2120)"/>
<path d="M9.22346 71.0596C5.32298 83.7549 20.8175 84.8036 27.6859 84.8033C33.4359 84.8031 34.0574 80.144 43.5536 76.774" stroke="white"/>
<path d="M18.9037 90.0331C22.3788 94.3361 31.4901 100.736 40.1343 91.9129C50.9395 80.8837 52.6133 75.9585 52.0731 70.7453" stroke="url(#paint36_linear_21_2120)"/>
<path d="M31.4122 45.1812C33.6446 45.606 43.5674 44.2681 49.2292 55.2523C53.7586 64.0397 52.0044 75.6607 50.5611 80.3728" stroke="url(#paint37_linear_21_2120)"/>
<path d="M20.6583 75.235C22.307 76.3323 26.8624 76.5412 31.8944 68.5988M17.3624 73.8274C20.0578 76.5577 30.7496 77.4884 32.941 60.1378" stroke="url(#paint38_linear_21_2120)"/>
<defs>
<linearGradient id="paint0_linear_21_2120" x1="61.3004" y1="51.3182" x2="29.9592" y2="1.19876" gradientUnits="userSpaceOnUse">
<stop stop-color="#828B3A"/>
<stop offset="1" stop-color="#B5C37F"/>
</linearGradient>
<linearGradient id="paint1_linear_21_2120" x1="74.1165" y1="80.1475" x2="135.85" y2="65.5531" gradientUnits="userSpaceOnUse">
<stop stop-color="#828B3A"/>
<stop offset="1" stop-color="#B5C37F"/>
</linearGradient>
<linearGradient id="paint2_linear_21_2120" x1="46.2059" y1="68.3022" x2="40.7607" y2="137.82" gradientUnits="userSpaceOnUse">
<stop stop-color="#828B3A"/>
<stop offset="1" stop-color="#B5C37F"/>
</linearGradient>
<linearGradient id="paint3_linear_21_2120" x1="88.4319" y1="56.1982" x2="90.4876" y2="64.2175" gradientUnits="userSpaceOnUse">
<stop stop-color="white" stop-opacity="0"/>
<stop offset="1" stop-color="white"/>
</linearGradient>
<linearGradient id="paint4_linear_21_2120" x1="71.5206" y1="42.254" x2="75.3981" y2="57.3804" gradientUnits="userSpaceOnUse">
<stop stop-color="white" stop-opacity="0"/>
<stop offset="1" stop-color="white"/>
</linearGradient>
<linearGradient id="paint5_linear_21_2120" x1="71.5206" y1="42.254" x2="75.3981" y2="57.3804" gradientUnits="userSpaceOnUse">
<stop stop-color="white" stop-opacity="0"/>
<stop offset="1" stop-color="white"/>
</linearGradient>
<linearGradient id="paint6_linear_21_2120" x1="91.2025" y1="40.3758" x2="64.1106" y2="76.8713" gradientUnits="userSpaceOnUse">
<stop stop-color="white"/>
<stop offset="1" stop-color="#DA616C"/>
</linearGradient>
<linearGradient id="paint7_linear_21_2120" x1="66.7025" y1="54.2831" x2="74.7802" y2="62.2315" gradientUnits="userSpaceOnUse">
<stop stop-color="#D9D9D9" stop-opacity="0.37"/>
<stop offset="0.154167" stop-color="#DEA5AB" stop-opacity="0.713219"/>
<stop offset="1" stop-color="#E27A84"/>
</linearGradient>
<linearGradient id="paint8_linear_21_2120" x1="7.31401" y1="0" x2="7.31401" y2="12.3027" gradientUnits="userSpaceOnUse">
<stop stop-color="#F48C94"/>
<stop offset="0.945833" stop-color="#B56C75"/>
</linearGradient>
<linearGradient id="paint9_linear_21_2120" x1="78.5335" y1="47.1352" x2="78.0965" y2="50.1622" gradientUnits="userSpaceOnUse">
<stop stop-color="#F5B7BE"/>
<stop offset="1" stop-color="#EE9CA5" stop-opacity="0"/>
</linearGradient>
<linearGradient id="paint10_linear_21_2120" x1="77.0908" y1="43.7056" x2="81.9031" y2="62.4784" gradientUnits="userSpaceOnUse">
<stop stop-color="#F1B7AD"/>
<stop offset="1" stop-color="#F2B9AE"/>
</linearGradient>
<linearGradient id="paint11_linear_21_2120" x1="98.1748" y1="48.9509" x2="84.4739" y2="54.2176" gradientUnits="userSpaceOnUse">
<stop offset="0.0104167" stop-color="white" stop-opacity="0"/>
<stop offset="0.239583" stop-color="white"/>
<stop offset="0.817708" stop-color="white"/>
<stop offset="1" stop-color="white" stop-opacity="0"/>
</linearGradient>
<linearGradient id="paint12_linear_21_2120" x1="99.2223" y1="53.7198" x2="70.5666" y2="69.2863" gradientUnits="userSpaceOnUse">
<stop offset="0.0104167" stop-color="white" stop-opacity="0"/>
<stop offset="0.239583" stop-color="white"/>
<stop offset="0.817708" stop-color="white"/>
<stop offset="1" stop-color="white" stop-opacity="0"/>
</linearGradient>
<linearGradient id="paint13_linear_21_2120" x1="78.3987" y1="40.9219" x2="81.9404" y2="53.708" gradientUnits="userSpaceOnUse">
<stop offset="0.0104167" stop-color="white" stop-opacity="0"/>
<stop offset="0.239583" stop-color="white"/>
<stop offset="0.817708" stop-color="white"/>
<stop offset="1" stop-color="white" stop-opacity="0"/>
</linearGradient>
<linearGradient id="paint14_linear_21_2120" x1="78.3987" y1="40.9219" x2="81.9404" y2="53.708" gradientUnits="userSpaceOnUse">
<stop offset="0.0104167" stop-color="white" stop-opacity="0"/>
<stop offset="0.239583" stop-color="white"/>
<stop offset="0.817708" stop-color="white"/>
<stop offset="1" stop-color="white" stop-opacity="0"/>
</linearGradient>
<linearGradient id="paint15_linear_21_2120" x1="78.3987" y1="40.9219" x2="81.9404" y2="53.708" gradientUnits="userSpaceOnUse">
<stop offset="0.0104167" stop-color="white" stop-opacity="0"/>
<stop offset="0.239583" stop-color="white"/>
<stop offset="0.817708" stop-color="white"/>
<stop offset="1" stop-color="white" stop-opacity="0"/>
</linearGradient>
<linearGradient id="paint16_linear_21_2120" x1="84.2163" y1="46.7704" x2="78.2165" y2="57.0588" gradientUnits="userSpaceOnUse">
<stop offset="0.0104167" stop-color="white" stop-opacity="0"/>
<stop offset="0.279167" stop-color="white"/>
<stop offset="0.817708" stop-color="white"/>
<stop offset="1" stop-color="white" stop-opacity="0"/>
</linearGradient>
<linearGradient id="paint17_linear_21_2120" x1="77.3012" y1="38.6127" x2="72.4177" y2="56.0249" gradientUnits="userSpaceOnUse">
<stop offset="0.0187499" stop-color="white" stop-opacity="0.07"/>
<stop offset="0.560417" stop-color="white"/>
<stop offset="1" stop-color="white" stop-opacity="0"/>
</linearGradient>
<linearGradient id="paint18_linear_21_2120" x1="70.6523" y1="51.6798" x2="59.3499" y2="74.8717" gradientUnits="userSpaceOnUse">
<stop offset="0.0187499" stop-color="white" stop-opacity="0.07"/>
<stop offset="0.560417" stop-color="white"/>
<stop offset="1" stop-color="white" stop-opacity="0"/>
</linearGradient>
<linearGradient id="paint19_linear_21_2120" x1="104.922" y1="56.9389" x2="104.639" y2="74.0406" gradientUnits="userSpaceOnUse">
<stop offset="0.0187499" stop-color="white" stop-opacity="0.07"/>
<stop offset="0.560417" stop-color="white"/>
<stop offset="1" stop-color="white" stop-opacity="0"/>
</linearGradient>
<linearGradient id="paint20_linear_21_2120" x1="76.5646" y1="47.1919" x2="71.4299" y2="55.866" gradientUnits="userSpaceOnUse">
<stop offset="0.0187499" stop-color="white" stop-opacity="0.07"/>
<stop offset="0.560417" stop-color="white"/>
<stop offset="1" stop-color="white" stop-opacity="0"/>
</linearGradient>
<linearGradient id="paint21_linear_21_2120" x1="31.2388" y1="59.0227" x2="40.3049" y2="57.8129" gradientUnits="userSpaceOnUse">
<stop stop-color="white" stop-opacity="0"/>
<stop offset="1" stop-color="white"/>
</linearGradient>
<linearGradient id="paint22_linear_21_2120" x1="13.205" y1="71.7866" x2="30.3059" y2="69.5046" gradientUnits="userSpaceOnUse">
<stop stop-color="white" stop-opacity="0"/>
<stop offset="1" stop-color="white"/>
</linearGradient>
<linearGradient id="paint23_linear_21_2120" x1="13.205" y1="71.7866" x2="30.3059" y2="69.5046" gradientUnits="userSpaceOnUse">
<stop stop-color="white" stop-opacity="0"/>
<stop offset="1" stop-color="white"/>
</linearGradient>
<linearGradient id="paint24_linear_21_2120" x1="14.2588" y1="54.0605" x2="42.4485" y2="89.8899" gradientUnits="userSpaceOnUse">
<stop stop-color="white"/>
<stop offset="1" stop-color="#DA616C"/>
</linearGradient>
<linearGradient id="paint25_linear_21_2120" x1="25.6844" y1="77.962" x2="34.0669" y2="70.2723" gradientUnits="userSpaceOnUse">
<stop stop-color="#D9D9D9" stop-opacity="0.37"/>
<stop offset="0.154167" stop-color="#DEA5AB" stop-opacity="0.713219"/>
<stop offset="1" stop-color="#E27A84"/>
</linearGradient>
<linearGradient id="paint26_linear_21_2120" x1="6.61999" y1="0" x2="6.61999" y2="13.5566" gradientUnits="userSpaceOnUse">
<stop stop-color="#F48C94"/>
<stop offset="0.945833" stop-color="#B56C75"/>
</linearGradient>
<linearGradient id="paint27_linear_21_2120" x1="19.6911" y1="66.3508" x2="22.846" y2="67.5121" gradientUnits="userSpaceOnUse">
<stop stop-color="#F5B7BE"/>
<stop offset="1" stop-color="#EE9CA5" stop-opacity="0"/>
</linearGradient>
<linearGradient id="paint28_linear_21_2120" x1="15.6862" y1="67.0842" x2="36.9096" y2="64.252" gradientUnits="userSpaceOnUse">
<stop stop-color="#F1B7AD"/>
<stop offset="1" stop-color="#F2B9AE"/>
</linearGradient>
<linearGradient id="paint29_linear_21_2120" x1="24.8062" y1="49.2474" x2="26.8733" y2="62.4588" gradientUnits="userSpaceOnUse">
<stop offset="0.0104167" stop-color="white" stop-opacity="0"/>
<stop offset="0.239583" stop-color="white"/>
<stop offset="0.817708" stop-color="white"/>
<stop offset="1" stop-color="white" stop-opacity="0"/>
</linearGradient>
<linearGradient id="paint30_linear_21_2120" x1="30.2221" y1="49.0759" x2="38.1304" y2="78.1918" gradientUnits="userSpaceOnUse">
<stop offset="0.0104167" stop-color="white" stop-opacity="0"/>
<stop offset="0.239583" stop-color="white"/>
<stop offset="0.817708" stop-color="white"/>
<stop offset="1" stop-color="white" stop-opacity="0"/>
</linearGradient>
<linearGradient id="paint31_linear_21_2120" x1="12.83" y1="65.484" x2="27.2839" y2="63.2083" gradientUnits="userSpaceOnUse">
<stop offset="0.0104167" stop-color="white" stop-opacity="0"/>
<stop offset="0.239583" stop-color="white"/>
<stop offset="0.817708" stop-color="white"/>
<stop offset="1" stop-color="white" stop-opacity="0"/>
</linearGradient>
<linearGradient id="paint32_linear_21_2120" x1="12.83" y1="65.484" x2="27.2839" y2="63.2083" gradientUnits="userSpaceOnUse">
<stop offset="0.0104167" stop-color="white" stop-opacity="0"/>
<stop offset="0.239583" stop-color="white"/>
<stop offset="0.817708" stop-color="white"/>
<stop offset="1" stop-color="white" stop-opacity="0"/>
</linearGradient>
<linearGradient id="paint33_linear_21_2120" x1="12.83" y1="65.484" x2="27.2839" y2="63.2083" gradientUnits="userSpaceOnUse">
<stop offset="0.0104167" stop-color="white" stop-opacity="0"/>
<stop offset="0.239583" stop-color="white"/>
<stop offset="0.817708" stop-color="white"/>
<stop offset="1" stop-color="white" stop-opacity="0"/>
</linearGradient>
<linearGradient id="paint34_linear_21_2120" x1="20.1926" y1="61.2616" x2="28.8028" y2="69.9542" gradientUnits="userSpaceOnUse">
<stop offset="0.0104167" stop-color="white" stop-opacity="0"/>
<stop offset="0.279167" stop-color="white"/>
<stop offset="0.817708" stop-color="white"/>
<stop offset="1" stop-color="white" stop-opacity="0"/>
</linearGradient>
<linearGradient id="paint35_linear_21_2120" x1="10.1143" y1="66.0904" x2="27.1771" y2="75.5725" gradientUnits="userSpaceOnUse">
<stop offset="0.0187499" stop-color="white" stop-opacity="0.07"/>
<stop offset="0.560417" stop-color="white"/>
<stop offset="1" stop-color="white" stop-opacity="0"/>
</linearGradient>
<linearGradient id="paint36_linear_21_2120" x1="23.4445" y1="74.0513" x2="43.856" y2="91.6068" gradientUnits="userSpaceOnUse">
<stop offset="0.0187499" stop-color="white" stop-opacity="0.07"/>
<stop offset="0.560417" stop-color="white"/>
<stop offset="1" stop-color="white" stop-opacity="0"/>
</linearGradient>
<linearGradient id="paint37_linear_21_2120" x1="34.6703" y1="44.5386" x2="53.2985" y2="48.2704" gradientUnits="userSpaceOnUse">
<stop offset="0.0187499" stop-color="white" stop-opacity="0.07"/>
<stop offset="0.560417" stop-color="white"/>
<stop offset="1" stop-color="white" stop-opacity="0"/>
</linearGradient>
<linearGradient id="paint38_linear_21_2120" x1="19.4421" y1="68.1039" x2="26.6682" y2="75.5004" gradientUnits="userSpaceOnUse">
<stop offset="0.0187499" stop-color="white" stop-opacity="0.07"/>
<stop offset="0.560417" stop-color="white"/>
<stop offset="1" stop-color="white" stop-opacity="0"/>
</linearGradient>
</defs>
</svg>
